<mxfile host="app.diagrams.net" agent="Mozilla/5.0 (Windows NT 10.0; Win64; x64) AppleWebKit/537.36 (KHTML, like Gecko) Chrome/133.0.0.0 Safari/537.36" version="26.0.10">
  <diagram name="Page-1" id="7DSMkEoMC-NE01Yf9gfc">
    <mxGraphModel dx="1434" dy="738" grid="1" gridSize="10" guides="1" tooltips="1" connect="1" arrows="1" fold="1" page="1" pageScale="1" pageWidth="2339" pageHeight="3300" math="0" shadow="0">
      <root>
        <mxCell id="0" />
        <mxCell id="1" parent="0" />
        <mxCell id="G4rwLLoVx2K-rOXY0CrV-170" value="" style="group;fillColor=none;" parent="1" vertex="1" connectable="0">
          <mxGeometry x="120" y="290.00000000000006" width="350" height="330" as="geometry" />
        </mxCell>
        <mxCell id="G4rwLLoVx2K-rOXY0CrV-15" value="" style="rounded=0;whiteSpace=wrap;html=1;fontSize=12;fillColor=none;strokeColor=#94c1ff;gradientColor=none;strokeWidth=5;" parent="G4rwLLoVx2K-rOXY0CrV-170" vertex="1">
          <mxGeometry x="4" width="340" height="330" as="geometry" />
        </mxCell>
        <mxCell id="ESt_-W5ADQbBedNpq2sp-12" value="" style="rounded=1;whiteSpace=wrap;html=1;fillColor=#fff2cc;strokeColor=none;" parent="G4rwLLoVx2K-rOXY0CrV-170" vertex="1">
          <mxGeometry x="44.5" y="83" width="50.5" height="45" as="geometry" />
        </mxCell>
        <mxCell id="G4rwLLoVx2K-rOXY0CrV-17" value="" style="shape=image;html=1;verticalAlign=top;verticalLabelPosition=bottom;labelBackgroundColor=#ffffff;imageAspect=0;aspect=fixed;image=https://cdn1.iconfinder.com/data/icons/ionicons-outline-vol-1/512/beaker-outline-128.png" parent="G4rwLLoVx2K-rOXY0CrV-170" vertex="1">
          <mxGeometry x="26" y="55" width="83" height="83" as="geometry" />
        </mxCell>
        <mxCell id="068pTRy_MaGUJHBF9QUh-5" value="" style="rounded=1;whiteSpace=wrap;html=1;strokeColor=default;fillColor=none;dashed=1;dashPattern=8 8;" parent="G4rwLLoVx2K-rOXY0CrV-170" vertex="1">
          <mxGeometry x="28" y="42" width="160" height="98" as="geometry" />
        </mxCell>
        <mxCell id="G4rwLLoVx2K-rOXY0CrV-16" value="" style="group;fontStyle=1" parent="G4rwLLoVx2K-rOXY0CrV-170" vertex="1" connectable="0">
          <mxGeometry y="50" width="141" height="89.99999999999994" as="geometry" />
        </mxCell>
        <mxCell id="G4rwLLoVx2K-rOXY0CrV-25" value="" style="shape=image;html=1;verticalAlign=top;verticalLabelPosition=bottom;labelBackgroundColor=#ffffff;imageAspect=0;aspect=fixed;image=https://cdn1.iconfinder.com/data/icons/science-technology-outline-24-px/24/Chemical_dropper_color_picker_dropper_laboratory_tool_pipette-128.png;strokeWidth=3;fontSize=12;fillColor=none;gradientColor=none;rotation=135;" parent="G4rwLLoVx2K-rOXY0CrV-170" vertex="1">
          <mxGeometry x="79.69999999999999" y="160" width="58.59" height="58.59" as="geometry" />
        </mxCell>
        <mxCell id="G4rwLLoVx2K-rOXY0CrV-59" value="" style="endArrow=classic;html=1;rounded=0;fontSize=10;entryX=0;entryY=0.5;entryDx=0;entryDy=0;exitX=0.75;exitY=1;exitDx=0;exitDy=0;" parent="G4rwLLoVx2K-rOXY0CrV-170" source="068pTRy_MaGUJHBF9QUh-5" target="G4rwLLoVx2K-rOXY0CrV-25" edge="1">
          <mxGeometry width="50" height="50" relative="1" as="geometry">
            <mxPoint x="138" y="137.99999999999994" as="sourcePoint" />
            <mxPoint x="120" y="160" as="targetPoint" />
          </mxGeometry>
        </mxCell>
        <mxCell id="G4rwLLoVx2K-rOXY0CrV-61" value="&lt;font style=&quot;font-size: 14px;&quot;&gt;Transfer&lt;/font&gt;" style="text;html=1;align=center;verticalAlign=middle;resizable=0;points=[];autosize=1;strokeColor=none;fillColor=none;fontSize=12;fontStyle=1" parent="G4rwLLoVx2K-rOXY0CrV-170" vertex="1">
          <mxGeometry x="2.000000000000007" y="160.00000000000006" width="80" height="30" as="geometry" />
        </mxCell>
        <mxCell id="G4rwLLoVx2K-rOXY0CrV-66" value="&lt;font style=&quot;font-size: 16px;&quot;&gt;Cleaning&amp;nbsp;&lt;br&gt;Stage&lt;/font&gt;" style="rounded=1;whiteSpace=wrap;html=1;strokeColor=#6c8ebf;strokeWidth=3;fontSize=12;fillColor=#dae8fc;fontStyle=1" parent="G4rwLLoVx2K-rOXY0CrV-170" vertex="1">
          <mxGeometry x="244" y="58" width="81" height="102" as="geometry" />
        </mxCell>
        <mxCell id="G4rwLLoVx2K-rOXY0CrV-68" value="&lt;font style=&quot;font-size: 14px;&quot;&gt;Clean Blade&lt;/font&gt;" style="text;html=1;align=center;verticalAlign=middle;resizable=0;points=[];autosize=1;strokeColor=none;fillColor=none;fontSize=12;fontStyle=1" parent="G4rwLLoVx2K-rOXY0CrV-170" vertex="1">
          <mxGeometry x="234.5" y="190.00000000000003" width="100" height="30" as="geometry" />
        </mxCell>
        <mxCell id="G4rwLLoVx2K-rOXY0CrV-30" value="" style="rounded=0;whiteSpace=wrap;html=1;strokeWidth=1;fontSize=12;fillColor=#B3B0B0;gradientColor=none;strokeColor=default;" parent="G4rwLLoVx2K-rOXY0CrV-170" vertex="1">
          <mxGeometry x="58.489999999999995" y="250" width="101" height="60" as="geometry" />
        </mxCell>
        <mxCell id="G4rwLLoVx2K-rOXY0CrV-31" value="" style="ellipse;whiteSpace=wrap;html=1;aspect=fixed;strokeWidth=3;fontSize=12;strokeColor=none;fillColor=#fff2cc;" parent="G4rwLLoVx2K-rOXY0CrV-170" vertex="1">
          <mxGeometry x="72" y="260" width="10" height="10" as="geometry" />
        </mxCell>
        <mxCell id="G4rwLLoVx2K-rOXY0CrV-37" value="" style="ellipse;whiteSpace=wrap;html=1;aspect=fixed;strokeWidth=3;fontSize=12;strokeColor=none;fillColor=#fff2cc;" parent="G4rwLLoVx2K-rOXY0CrV-170" vertex="1">
          <mxGeometry x="72" y="275" width="10" height="10" as="geometry" />
        </mxCell>
        <mxCell id="G4rwLLoVx2K-rOXY0CrV-38" value="" style="ellipse;whiteSpace=wrap;html=1;aspect=fixed;strokeWidth=3;fontSize=12;strokeColor=none;fillColor=#fff2cc;" parent="G4rwLLoVx2K-rOXY0CrV-170" vertex="1">
          <mxGeometry x="72" y="290" width="10" height="10" as="geometry" />
        </mxCell>
        <mxCell id="G4rwLLoVx2K-rOXY0CrV-40" value="" style="ellipse;whiteSpace=wrap;html=1;aspect=fixed;strokeWidth=3;fontSize=12;strokeColor=none;" parent="G4rwLLoVx2K-rOXY0CrV-170" vertex="1">
          <mxGeometry x="94" y="260" width="10" height="10" as="geometry" />
        </mxCell>
        <mxCell id="G4rwLLoVx2K-rOXY0CrV-41" value="" style="ellipse;whiteSpace=wrap;html=1;aspect=fixed;strokeWidth=3;fontSize=12;strokeColor=none;" parent="G4rwLLoVx2K-rOXY0CrV-170" vertex="1">
          <mxGeometry x="94" y="275" width="10" height="10" as="geometry" />
        </mxCell>
        <mxCell id="G4rwLLoVx2K-rOXY0CrV-42" value="" style="ellipse;whiteSpace=wrap;html=1;aspect=fixed;strokeWidth=3;fontSize=12;strokeColor=none;fillColor=#fff2cc;" parent="G4rwLLoVx2K-rOXY0CrV-170" vertex="1">
          <mxGeometry x="94" y="290" width="10" height="10" as="geometry" />
        </mxCell>
        <mxCell id="G4rwLLoVx2K-rOXY0CrV-43" value="" style="ellipse;whiteSpace=wrap;html=1;aspect=fixed;strokeWidth=3;fontSize=12;strokeColor=none;" parent="G4rwLLoVx2K-rOXY0CrV-170" vertex="1">
          <mxGeometry x="117" y="260" width="10" height="10" as="geometry" />
        </mxCell>
        <mxCell id="G4rwLLoVx2K-rOXY0CrV-44" value="" style="ellipse;whiteSpace=wrap;html=1;aspect=fixed;strokeWidth=3;fontSize=12;strokeColor=none;" parent="G4rwLLoVx2K-rOXY0CrV-170" vertex="1">
          <mxGeometry x="117" y="275" width="10" height="10" as="geometry" />
        </mxCell>
        <mxCell id="G4rwLLoVx2K-rOXY0CrV-45" value="" style="ellipse;whiteSpace=wrap;html=1;aspect=fixed;strokeWidth=3;fontSize=12;strokeColor=none;" parent="G4rwLLoVx2K-rOXY0CrV-170" vertex="1">
          <mxGeometry x="117" y="290" width="10" height="10" as="geometry" />
        </mxCell>
        <mxCell id="G4rwLLoVx2K-rOXY0CrV-46" value="" style="ellipse;whiteSpace=wrap;html=1;aspect=fixed;strokeWidth=3;fontSize=12;strokeColor=none;" parent="G4rwLLoVx2K-rOXY0CrV-170" vertex="1">
          <mxGeometry x="139.5" y="260" width="10" height="10" as="geometry" />
        </mxCell>
        <mxCell id="G4rwLLoVx2K-rOXY0CrV-47" value="" style="ellipse;whiteSpace=wrap;html=1;aspect=fixed;strokeWidth=3;fontSize=12;strokeColor=none;" parent="G4rwLLoVx2K-rOXY0CrV-170" vertex="1">
          <mxGeometry x="139.5" y="275" width="10" height="10" as="geometry" />
        </mxCell>
        <mxCell id="G4rwLLoVx2K-rOXY0CrV-48" value="" style="ellipse;whiteSpace=wrap;html=1;aspect=fixed;strokeWidth=3;fontSize=12;strokeColor=none;" parent="G4rwLLoVx2K-rOXY0CrV-170" vertex="1">
          <mxGeometry x="139.5" y="290" width="10" height="10" as="geometry" />
        </mxCell>
        <mxCell id="G4rwLLoVx2K-rOXY0CrV-60" style="edgeStyle=orthogonalEdgeStyle;rounded=0;orthogonalLoop=1;jettySize=auto;html=1;exitX=1;exitY=0;exitDx=0;exitDy=0;entryX=0.5;entryY=0;entryDx=0;entryDy=0;fontSize=10;" parent="G4rwLLoVx2K-rOXY0CrV-170" source="G4rwLLoVx2K-rOXY0CrV-25" target="G4rwLLoVx2K-rOXY0CrV-30" edge="1">
          <mxGeometry relative="1" as="geometry" />
        </mxCell>
        <mxCell id="G4rwLLoVx2K-rOXY0CrV-112" value="" style="endArrow=classic;html=1;rounded=0;fontSize=12;entryX=0.5;entryY=1;entryDx=0;entryDy=0;" parent="G4rwLLoVx2K-rOXY0CrV-170" edge="1">
          <mxGeometry width="50" height="50" relative="1" as="geometry">
            <mxPoint x="285" y="235.99999999999994" as="sourcePoint" />
            <mxPoint x="284.75" y="159.99999999999994" as="targetPoint" />
          </mxGeometry>
        </mxCell>
        <mxCell id="G4rwLLoVx2K-rOXY0CrV-148" value="&lt;font style=&quot;font-size: 20px;&quot;&gt;Opentrons Liquid Handling Robot&lt;/font&gt;" style="text;html=1;align=center;verticalAlign=middle;resizable=0;points=[];autosize=1;strokeColor=none;fillColor=none;fontSize=20;fontStyle=1" parent="G4rwLLoVx2K-rOXY0CrV-170" vertex="1">
          <mxGeometry x="5.000000000000028" width="340" height="40" as="geometry" />
        </mxCell>
        <mxCell id="G4rwLLoVx2K-rOXY0CrV-164" value="&lt;font style=&quot;font-size: 14px;&quot;&gt;Mix&lt;/font&gt;" style="text;html=1;align=center;verticalAlign=middle;resizable=0;points=[];autosize=1;strokeColor=none;fillColor=none;fontSize=12;fontStyle=1" parent="G4rwLLoVx2K-rOXY0CrV-170" vertex="1">
          <mxGeometry x="58.489999999999995" y="218.59000000000003" width="50" height="30" as="geometry" />
        </mxCell>
        <mxCell id="ESt_-W5ADQbBedNpq2sp-8" value="" style="shape=image;verticalLabelPosition=bottom;labelBackgroundColor=default;verticalAlign=top;aspect=fixed;imageAspect=0;image=data:image/png,iVBORw0KGgoAAAANSUhEUgAAAPQAAAKrCAYAAADGaKD1AAAAAXNSR0IArs4c6QAAAARnQU1BAACxjwv8YQUAAAAJcEhZcwAADsMAAA7DAcdvqGQAACxgSURBVHhe7d0HmBRF/sbxApQgEkyYEEQ4BQVUEAPq/wROwZyzGE5F9M7zTKh3Z3zOeIbHR+/EdIqPionoiRlEFBEUkSSoIAoiIKAgsBLnP2/RjcMyCzuzE7p/8/08T7HTvbO7w3S9U9Xd1dXVEkkOgAnVg68ADCDQgCEEGjCEQAOGEGjAEAINGEKgAUMINGAIgQYMIdAlSIMDGSBoE0M/S0xFm7tatWrBI8QZLXSJWLFihfvggw/cGWec4bbffntXs2ZN/1XLI0aM8N9H/NFCl4iRI0e6c889102fPn291libf7fddnN9+vRxHTt2pKWOOVpo4xTYNWvWuFmzZvkSLutr+Fn+/fffu9mzZ/vH4TrEU41bkoLHMECBXLlype9CL1q0yH3yySdu0KBB7t1333XTpk1L27WuU6eOD/mcOXPcr7/+6rbYYgvfUut36SutdnzQ5TZi4cKFburUqe6LL75wo0eP9uXLL790ZWVl67XGFalRo8a65ynQrVq1cu3atXP777+/22uvvVyLFi3ctttuGzwbUUWgY0yb7ptvvnH9+vXzB7YmTpzou9VqoVOFrW1Fwla4/HO0vPnmm7vGjRv7UHfq1Mkdf/zxrlmzZrTcEUWgY0ibTF3ne+65xz311FPuhx9+8F3lbFUU6FC4vlatWm6HHXZw5513nrvhhhv8MqGOFgIdM9ovfuONN9x1113nvvvuuwpDmKmNBTPd39h1113d3Xff7bp27eoaNGgQrEWxEegY0Skntcp9+/Z1ixcvDtbmRkWB3lj1UJB1Hvvaa6/1p75orYuPQMfE2LFjXc+ePd24ceM22EcuJu1j77333u7RRx91++67L6EuMgIdcTqdpBCfcsop/gBYFCnEaqFffvllt88++6xbh8JjYEmE6bN2xowZfn9ZX6NKr1MfNnqdUf3QKRUEOuIeeeQRN3z48Jwd/MoX9STee+89/3r1Wun4FQdd7gibNGmSH9ixbNmyYE30adSZBrXsueeernp12otCI9AR1qNHDzdgwIBgKR6073zCCSe43r17E+giINAR9vbbb8fyskYNOOnSpQsHxoqAQAOGEGijfvzxRz++WxdnZEr7wdp333nnnYM12aGFLjwCbZCubz7ooIPczJkzgzWZURB1QcaHH37ov2aLQBceRy0M0uwkuuqqKvTzH3/8sQ9ltgWFR6ANysWBNHXcli9fHiwhLgg0YAiBBgwh0IAhBBowhEADhhBowBAGlkSYNs2YMWP8dLyrV68O1m7ap59+6h5++OGsL2HUOWT97LPPPuvOPvvsYC3igEBHkDaJJjS44IIL/LXQYcAKhUDHF13uCPrll1/cTTfd5Mdih8LRV1UpsI9AR5Cm8fnss898K6kg6msuSqZWrVoVPEJcEOgI0hVSURh2mc2HAIqLQAOGEGjAEAINGEKgAUMINGAIgQYMIdCAIQQaFeI8dPwQaFRo4cKFbs6cORWWn376yd/TCtHBxRkRNGrUKNe9e3c3bdo0v1zoTRQON91uu+3clltuGaxdn56je0Mfd9xx7uabb3Z169YNvoNiItARVOxAh3Rvqsq0wM8995w766yzgiUUE11upBW20vq6qaJ5wGkXooFAo8q4Kis6CDRyQi01io9Ax0D5Lm62JRPqQm+sIJoINGAIgY6ghg0b+tNFtITIFIGOoBYtWrhOnTr587xAJjgPHVELFixwd999t3v//ffdokWLgrWVOyet58+dOzdY+k0uN3XqPnmPHj1c7969gyUUE4GOsJUrV/oJA5csWeLDqBBVZnMNGDDA3XHHHcHSbwi0fQTaoMcff9xdcsklwdJvCLR97EMbVKNGjeARSg2BNqjQga5du3bwCMVGoJEVdd9VdCT+qKOOCtai2NiHNqhPnz7+vljlZbqpmzVr5ho1ahQsbUiXTJ5zzjn+/lc1a9YM1qKYCLRBuQi0Dno9/fTT/jLOykg9SIbiocuNKiPM0UGgsVEK66YKooNAA4YQaMAQAg0YQqABQwi0QTpQlYuzkRzwih8CbVD9+vXXOwqdbTD1exAvDCwx6Ndff3UdOnRwEydODNZkrnXr1n5+cCbQjxcCbYw2p8rSpUvdlClTsppid7PNNnMtW7b00yDR7Y4XAg0YQqBjSDOZDBkyxJcZM2YUbKJ7tdZqvZs0aeLvadWtWze/jOgg0DGiTTV79mx39dVXu5deeiknR7KzpXCffvrp7t5773U77bQTXfOI4Ch3jGi/WHd67NevX1HDLPr7r7zyirvlllv8nGeIBgIdEwrQmDFj3IsvvhiZe0npdbzwwgv+dSEaCHRMKND9+/ePXGuo1zNw4MCi9xiwFoGOCe2j6gBYFEX1dZUiAg0YQqABQwh0DMRl/5T96OIj0IAhBBowhEADhhBowBACDRhCoAFDCDRgCIEGDCHQgCEEGjCEQAOGEGjAEAIdM7ouOixAeQQaMIRAA4YQaMAQAg0YQqABQwg0YAiBBgwh0IAhBBowhEADhhBoVBnzcUcHgY6BcNx2VG+uHr4uxpcXH4GOCYVlxx13DJaihRu+RweBjgl1a48//vhgKVqOPfbY4BGKjUDHgMKscuCBB7oTTzxxXWuor8VsGfW3TzrpJHfwwQcHa1BsBDoGwtDWq1fP3Xjjje7oo492derU8eukGMHW3z/mmGP869HrQjRUS37yc4gyBsLNtGbNGvf999+79957z40ePdrNmzfPrwu/n+9gV69e3W233XauQ4cOrlOnTm6XXXbx6xANBDqmFOLly5e7VatW+WVtxkK10jqqXbt27YL3CrBpBDqPVq9e7X755Re3ePHiogQvbmrUqOEaNGjgu/B6jMwR6Dz48ccf3eeff+7Lp59+6saNG+eWLVvmA55L+mAIPxwsbEbtl7dr185359u2beuLuvd8AFYegc6B8C0cNWqUGzRokPvggw/ct99+6/dvV65c6b+Xb5Y2Y82aNV2jRo1ckyZN/BH0E044wR100EHBd9ci5OkR6CpQi/vTTz+5AQMGuPvvv99NnTo1bbDyWfmsb77wvdtjjz3clVde6U+TqVuuLrm+R7DXR6AzpH1hHWWePHmye/XVV93gwYPd7NmzNxosAp0beh81Ku24447zp8z22msvt/POO0d2SGwxEOhK0ts0YcIEN3DgQDds2DC/b6wDXigOHThr3769P3WmLnmbNm1orZMI9EborVGZNGmSu/vuu90777zju9grVqwInoFi0/52w4YN3eGHH+569erlWrduXdLnxQl0GnpL1PpOnz7dPfjgg+6VV15xS5cu9evVCvCWRdMWW2zhTj31VHfFFVe45s2b+1a81FptAl1OWVmZGzp0qOvfv78vP//8c/AdxIUOmp1yyin+AFrnzp39IJhSQaADOmKt000PPPCAGzNmjJszZ44fjYV4Urd7hx12cPvvv7/761//6g455JB1g1VSq7y5FlyBLmXJ0Cbmz5+f6NmzZyL5SZ5IbuBEsjJoi1OMlDp16iQuueSSxLx58xKrVq3y2zws1pRsC63WV6efXnvtNXffffe5r7/+er1P6xJ9W8zSttV+9TXXXOO6devmGjdu7Ftxay10SQZao7d0Dvmxxx5z77777rpx1rArDK7OWXfp0sX16NHDHXXUUa5WrVp+vRkKdClR9/r8889PNGzY0Hev9RZQ7Bdt67Bol2qrrbZKXHDBBb4bbklJBFr7SsuWLUu8/vrriVatWq3bRybQpVNSA51aWrZsmRgwYICvHxaY7nLrv6by3XffuSeeeMIXXTBh+L+MSkgGOXi0li4Eueiii3w3XBeExJoCbZWOaA4dOjRx8MEHJ2rWrLnuk1pfKaVbUlvosOgMxyGHHJJ45513EqtXrw5qUPyYC3R4OkJhfvbZZxPbb7+932CpG7L8BqaUVgnrQbqy4447Jp5//nlff+LIXJdb/x0NCnnyySfdPffc45YsWeLXJTdW8Iy1zwFS60SqunXrumuvvdZdfPHFfnBKRc+LJAXaCnWVJkyYkDjzzDMTm222WdpPYBX9tykUlXT1Q0X1R/Vo/PjxsRqAYirQU6ZMSRx66KGJzTff3B/JTrehVNJtWErplnR1REWh1n71xIkTYxPq2He59fI1DjsZZnfaaaf5r5sS8/8y8iAZ4ODRWql1pGXLlq5fv37+q0aXRVnsLxzVqK8333zTz2JRmTAD6SjAFX3Qq17pNkSqZ4WaIy5ryf9EbGmf+bXXXkvsscceabtMFRX9tymUTIrqze677+7rW5SPgMe2y62XrSmBunbt6o9qA4WgO4C+9dZbbs8994xk9zuWXe41a9a4Dz/80N/jiTCjkH744Qd35JFHupEjR+Z8nvWcUAsdNx999FGiXbt2dJ8pRSt77713IhnqoEZGR2wCHZ42mDFjRuIPf/hDokaNGv6NJdSUYhSdFu3SpUti+vTpvl5GRawCXVZWlujRo8e6g1thSfeGUyj5Lqp7F110UWLp0qVBLS2+2ARaYb799tt9y0ygKVEoqnuqj//85z99/YyCWARap6f69OmTqF+/fto3lkIpZqlXr56vn6qnxRbpQIf7zePGjUu0adMm7ZtJoRS7qKVW/VQ9LbbIn7bS1VL//ve//d0rgChK5sjXT9VT3ZChmCIfaN2etW/fvsyRjUhT/VQ91b3PiinSI8U0ze5+++3H4BHEhu6OOXr0aH9XzGKIbAutG8LdcMMNbu7cucEaIPo0kuxvf/tb0S7iiGSg1WnQ/aV0dQsQJ6q7qrea7z25EKwtnMgFWm+Ibtn6/PPPu/nz5/tlIE5+/PFHX38XJutxoUWyhf7iiy/8LWo4EIY4Ur0dMmRIUa7Pj2QL/eijj7qFCxcGa4D4WbBggevdu3fBe5iRO8qt1vmAAw7wN1wH4qx+/fpu1KhRfuqiagWaOTRyLfSdd95JmGGC6vFdd90VLBVGpFpo3bJm9913d8uXLw/WAPFWp04d3+ts2rRpsCa/ItNC63NFMytya1dYovEU/fv3L9i+dGQCvXjxYjds2LBoTusCZEn1WWMqVL8LIRKB1qfXV1995Qtgjer1l19+GSzlV2QCrf0M7UMD1sycOdPX70J0uyMRaO1njB8/3i1btixYA9iheq0ppwtxsDcSgdZ/eOzYscESYM9nn31WkGulIxHosrIyJjCAaRMnTnS//vprsJQ/kQi0rnvWgHbAKtVv1fN8i0Sgx40bx4UYME31W/U83yIRaHVHAMs0lnvy5MnBUv5EItDTpk0LHgF2FeJcdCQCPWvWrOARYFfJ7EMzbxhKQSHqeSQC/fPPPwePAJs0SqwQ47kjcfmkbpwdgZcB5JUOjOX7bE4kWmjCjFJQiHoeiUADyA0CDRhCoAFDCDRgCIEGDCHQgCEEGjCEQAOGEGjAEAINGEKgAUMINGAIgQYMIdCAIQQaMIRAA4YQaMAQAg0YQqABQwg0YAiBBgwh0IAhBBowhEADhhBowBACDRhCoAFDCDRgCIEGDCHQgCEEGjCEQAOGEGjAEAINGEKgAUMINGAIgQYMIdCAIQQaMIRAA4YQaMAQAg0YQqABQwg0YAiBBgwh0IAhBBowhEADhhBowBACDRhCoAFDCDRgCIEGDCHQgCEEGjCEQAOGEGjAEAINGEKgAUMINGAIgQYMIdCAIQQaMIRAA4YQaMAQAg0YQqABQwg0YAiBBgwh0IAhBBowhEADhhBowBACDRhCoAFDCDRgCIEGDCHQgCEEGjCEQAOGEGjAEAINGEKgAUMINGAIgQYMIdCAIQQaMIRAA4YQaMAQAg0YQqABQwg0YAiBBgwh0IAhBBowhEADhhBowBACDRhCoAFDCDRgCIEGDCHQgCEEGjCEQAOGEGjAEAINGEKgAUMINGAIgQYMIdCAIQQaMIRAA4YQaMAQAg0YQqABQwg0YAiBBgwh0IAhBBowhEADhhBowBACDRhCoAFDCDRgCIEGDCHQgCEEGjCEQAOGEGjAEAINGEKgAUMINGAIgQYMIdCAIdUSScHjoqlWrVrwqHD0N6tXr+723HNPd8IJJ7jDDjvMP95uu+1cjRo1gmch7lavXu3mzp3rJk2a5N5//303aNAgN3nyZLdmzRpXjKqf779ZcoHefPPNXatWrVzXrl3dmWee6dq2beuDrdcQvhXF+IBB/mn7KuDjx493ffv2de+8844P+sqVK4Nn5B+BzqHGjRu7Cy+80J1yyim+NVaQUZrUQk+ZMsW99NJL7sknn3SzZs0KvpNfBDpHWrZs6R555BF30EEHuZo1a9IKw1uxYoUbOXKku/TSS33A841AV5Fa4X322ce98sorrlmzZsHa9a1atcotWbLELVu2zHe/9OkNG1S3tJu1xRZbuHr16rnNNtss+M76pk+f7ntu6o6rW54vBLoKFOYuXbq4Rx99NG2YFeIxY8a4jz76yI0dO9ZNmzbNzZ8/3wc8Am8Lqkj1Sgc4daCzefPmbt9993UdO3Z0HTp0cHXr1t2g3s2YMcP16NHDDR06NG+hznu9UqCLTS8jH6VNmzaJZFgTyY3jS7LlXVeSn8SJ7t27J5o0aZJIbvS0P0+xVbSdtb213bX9w7oQ0uNRo0b5epMMe9rfUdWSb+YCrQ2hUrt27cRjjz22bqOllhEjRiSSn9rrnhuWdL+PYrM0atQoMXz4cF8fUmlZ9aZWrVppf66qJd/MBrpz586J5D5x8BfWKisrSzz33HOJ5P7Ues8NS/nfRbFd6tSp4+uD6kVIgdZyt27d8lIn8s1coFWS+0eJzz77LPjta6nLPXjw4MQuu+yS9mcopVlUHwYOHJhYtWpVUFPWGjdunK9H6X6mKiXfTLbQZ5xxhg9wqpkzZyY6depES0xZr6g+qF6ofqRSS616FD4nLOV/PtOSb+ZGVuio5tlnn73eEczk/9O9+eab7r333vOPgZDqQ3Jf2r3xxhvBmrVUf84666zYDQM2F+jddtvN/e53vwuW1tK55YceeogwI61ka+wefvjhDU5VtWjRosKxC1FlLtB77LGH22qrrdZroXWOecKECcESsKGJEyf6MQmptt56a1+f4sRcoHfZZRc/aCCVulP6FAYqotZ5yJAh6/XiNLJs1113DZbiwVyg1TrXqlUrWFqL1hmVoVY6lepR/fr1g6V4MBdoXXhR/kDGvHnzgkdAxTTsN3VXTfWodu3awVI8mAu0lD/CzcEwVIa63XHfNTMZ6PIINCrDwod/SQQaKBUEGjCEQAOGmJvg4NZbb3U33XRTsLR2v+iQQw7x08zk2pZbbum23357f2oj3fxk+tuaLKGsrMz9/PPP7qeffvLLUaJTM5prTaf7NKuHZvQIt4devyaB0Gv//vvv3dKlS/16qzQ91YgRI9Y7S3Lbbbe5W265JViq+vGYfMeNQGdBFf+oo45yxxxzjB9JpFCnm9pGR0w1Z5UCMXv2bD+9zeDBg92nn36a9w27KXrP27Rp4y666CK33377uSZNmriGDRv6gKcGWqdy9No///xz16dPHz8VbgSqTF5YCLT+QNHpZeSqJAMd/Na1dNVMx44d0z4305Ks6IlkpU/cf//9iR9//DH4C5W3fPnyxKxZs/xrrFevXk6u3sm2tG3b1s/OocsG9R5tip4zadIkf2VSut9noSQDvcFllNpW2k5hSfdzmZR8Yx86A8kN6s4//3x32WWXuW222SZYW3ka9LLzzju7G264wSU/FPxcV8Wg3sTJJ5/s2rdvv25O8k3RczRzquYyLz+0FtFBoCtJFb9Bgwbu8ssvX69bmg0F6pxzznF/+ctf0u5755sCqTHKqfvLlaHX2rRpU981RzQR6EpSxdeMkbm4nE6/S0MK1dIfccQRBb/mVsHU1LbZ0M8V40MIlcOWqSQd4NLBo1zSkeWnn366aF3vbCR304JHiCICnQFdTleVrnZ5CkejRo3cNddcE7uLABBNBDoDuQxzqhNPPNEdcMABwRKQPQKdgVwHOvx9Gthx+umn+4EqQFUQ6CJTqHW0+dRTT3W77757sBbIDoGOAB011nntXr16bTDbCpAJAh0RaqmPPfZYP6Q0X/vqsI9AR0idOnXcjTfeyMANZI1AR4haZs0pHscJ3ktF1HtPBDpiNCxTB8h09ROiSaFOV6KAQEeMKobOSR9++OGRqSSIDwIdQTrSrYtANDQUyASBjiC1zJo44U9/+hMXQiAj1JaI0mCTq666ys8qAlQWgY6w8PproLIIdESFB8R0cKxTp04cIEOlEOgIU4g1ZZFOY3HhBiqDQOeZrnnW5Ai6YV42kwNogIkCvddeewVrgIoR6DxTK6vy2GOPZX0jtG233dZPLJjttEEoHQS6QF5//XU3efLkYClzRx99tC/sS2NjCHSBzJgxw0+yv3z58mBNZtT1/tvf/pbV9MEoHQS6QHQLnGeeeaZKN59v3bq16969O4NNUCFqRoGoq/zll1/6felsZ87U5ZWafywXUwnDJgJdIOEBrd69e7sJEyb4x9nQ3S40CQKXVyIdAl0gYQAXLFjgb6iX7b60bpR36aWX+jteAuUR6AJTd/u9995zb775ZtZdb91jSnN5sy+N8qgRRaDbyz777LP+Vq3Z0P64rsTShRucxkIqAl0EGmAydOhQN2rUqKxbaV24oauxNMMJoUaIQBeJ9qUfeeQRt3r16mBN5jp37uwOPfTQYAkg0EX11ltvuddeey3rVnrHHXf047zVWgNCoItIQb722mvd7NmzgzWZ0UExncLivlgIEegiUqCnT5+e9YUb2nfWrWi1L80dNyAEuojCrnb//v2zvnBDoda+dNeuXYM1KGUEusjUMn/11Vdu4MCBbsWKFRnvTyvQGrRy2223+ckQUNoIdJEpwBo1pvPSuiIrXJdaNkWh1iyhZ555JkNCSxyBjojUCzcqE+LyNFb85JNPds2bNw/WoBQR6IhQiP/zn/+4iRMnBmsqL/wAaNeunZ8EgVa6dBHoCCkrK3N///vf3S+//BKsqRx1uVU0l/eFF17IvnQJI9ARM2LECPfGG29k3O3WOWn9jC7cuOKKK3zAUXoIdMQsXrzYvfTSS27hwoXBmsoLW2pNzq/ZTVB6CHQEDRs2zF+8kelgE7XSYdf7+uuv93N5hyFXgX0EOoJ0eaUOkGkeMsmk+x2G97DDDnO///3vg7UoFQQ6oj744AN/bjrTfenQ9ttv7y/caNiwYbAGpYBAR5Quq/zHP/7hZs6c6UOdabB16urYY491++yzT7AGpYBAR5S6zXPmzPHXTIdd70ypddbVXNqnRmkg0BGnyfnHjx/vH2faSutDoUuXLu6kk04K1sA6Ah0xYfc6DO/UqVPdK6+84n799Ve/nAkFWkNCdeGGJkHQMmwj0BGnU1c6L/3FF1/45UxbaWnatKk7//zzmSW0BLCFI06t6rfffusefvjhYE1m9POa/EAXbuy6665+XTYfCogHAh1xYfiee+45N3LkyPW645no0KGD69Spk2+l1eqvXLky+A4sIdAxoADrSLdOY2nQSTbUSv/xj39cN6FgNlMeIfoIdAyELfLYsWPd//73v6xb6f33398PNhEOkNlEoGNCAdZllc8//7z7/vvvg7WZ0WCTm266yTVq1CirDwREH4GOmffff9/fGyvbQGou78suu4wW2igCHTM6H63RYz/99FNWodZBMXW7W7VqFawpPH2Y6O6Zu+++uzvooIPcEUcc4YepHnfcca5bt27+biC6b5emKOZUW2Z4t2JozJgx7plnnvGBzjTUer4u3CjGGG8NQd1vv/3cdddd5+dP0/+hb9++7uWXX/aDZ1T0+MUXX/QXpjz55JPu5ptvdvvuuy89ikoi0DGkCzduv/12P0l/JsLwK1jhDegLQa2s7u6h+cdff/11H9JTTjnFH6Rr0qSJb61r1qzpX5Ou4dZuQdu2bX2rfcMNN/hb7z7wwAPcE7sSCHRM6fTVQw89lNVc3oWiVnWnnXZyd911l7+Pl7rTW2+9tQ9vZbvSCrm63ppWSVMztW/fnm74RvDOxET50Oo88quvvuq735UNdGq3tRBdWHXrNSDm6quv9i2vegb6u9n+7QMPPNCPmFPrXYjXH0cEOkYU3NSia6U1znvJkiXBMzatKoHKRJ06dfxAloMPPjhnf1O/Q930f/3rX76Vx4YIdIxp9NgLL7zg96Ur20oXig68aQZSnfvO5WtTqHVJaM+ePYM1SEWgY27+/Pnu3nvvzXoShHxSK5qudVbAly5d6m/Q9+6777p+/fr5Dybd3+uTTz7xxwe0S5HugyD8XX/+85/9wTOsj0DHnCq9jh7roFOUWmkdrFu2bJl/TalF9/EaMmSIn0nlnHPO8efETzvtNHf22Wf7K8J0f64rr7xyo3fjVKh1oOyQQw4J1iBEoA3QYJMbb7zRt3pRoVZ23rx5/hRb+EGj1vf444935513nnv88cfd559/7hYtWuRb47B8/fXX/hz0WWed5ecmD3+2vC222MKfn8b6CLQBqvSa2URBUICiQK2zQqsLSnQjPp260n233n77bT/KTeGtiHYfdI+vW265pcLn6Yh548aNXe3atYM1EAJthAKkEVY68h0Vmor4yCOP9Aex1IPQ/n7Y9U4t6Wi9rixTK18RnQrT0XT8hkAbMnr0aN8Cbqz1KzS1xj/88ENWr0m7EJqtpaLQ6wg6d9pcH4E2RHev1OgxtdYWKMgbm1lFXfOo7GJEBYE2RAGYMGGCH01VUasWJxr2uc022wRLG9L14VY+vHKFQBt03333bfS0T1xo/1hjwdNRy6x9cp0ew28ItEGq6Lo6KYqDTTLRrl07V69evWBpfQryd999Z6InkksE2igdHNPsJnGt8DrYdcYZZ/grq8qPNBONX//000+DJYQItFGad0zzj2ngRhzpSi2d8kpHH1LffPONGzduXLAGIQJtlPYxBw0a5EaNGhWsiQ9NOaxZTTRoJF3rLP/97385IJYGgTZswYIFrlevXjndl9a54XwfiDrmmGP8YJSK6Ny0As3+84YItHEaQnnVVVdldM10RTQ4RCPRdLooX5o1a+YuvfTSdTcEKE/n2m+99VbOP1eAQJeAPn36+BZNYahKq6Yga4YU/Z58ueSSS/ykCJKuu62DfZqKCOkR6AyoMmdDp5E2NiY5X8LwKoh33nmnv8xSrWy2oR4xYoQbMGBA3rq6p59+urv88sv9PnS6MKt3oCmM9V7S3U6PQGdAN1/XqZLKdvdU6RQmHeDJ5v7OuRBW/Llz5/oJ9nv37u0DUZn9av2silpkXTV18cUX5+WouU5NaS7up59+2g8mUZjLn67SB5Gm/Y3aWPWoIdCVFFZsdQnVfdW1vLrmNwxMKoVXp1U0Za32X8M5tIsl/Nv6cNHkAZpYQC3d8OHD/fXH6kEoqIsXL/b72ipa1sEn3aXjjjvu8FPqzpkzx/+eXFJwNU/Y/fffv9F5wjQpguYSY99546olN3bR+y4VnZrIhg6Y6P5NIf33NLOFbsWaC6qAGr2ka3E1a8ZWW23lWxVdcK+jvwq9gqMjzDoXrJYxtUWJwNvt32+dEtK8X5pWV69d1xeH31PRa9YRbbXms2fPzvntZ8Ntvttuu/kJ9Tt27OgHk+j9TaX366OPPvIzmWhkWD7pLh7arUi9guu2227z12VXRmW2bd63f/IPFJ1eRq5KMtDBb10rWTETycqS9rmZlmQlrHJJ93tLsei92HLLLRMff/yx30bJljfYYr/R+mSIc7b9NlWSgU4kd0WCv76W6lP5bVhRSfc7y5d8o8uNgktWft8y6wCbbo0TritPuwLqcWV7MLIUEegMJD8Aq1yw9lyz9of/7//+b12QUwOt90ndfd0yR9Mq5bq7X1Xlt2lYooBAo6B04EtXgml+sdT99lSaGVSzgurgY9Quj4xKcCtCoFEwOgCn2/foiHlFt8VRy6wb8T311FM+zFEPUNQQaBSE7jKpmVR0L2hJF2YdWddzdEpNrTQyR6CRd2qZdXDrxBNPXNfilg+zBrrcfffdvmg+bqF1zhyBRt5pSqRzzz3XD+mU8mFWcDWwRFP9apZQZI9AI2808ObRRx/1d8oIQ1w+zNpPfuKJJ/z9udTlTv2+Hm+sYEOMFENeaDTd9ddf74e+VtQyi0bT6aj3rFmzgjWVpyGqH3/8sT9fnQuVGSlW1bjkPW4KdLHpZeSq5HOkGKXy5eCDD04kQ+rff5WKJFvoRHKfObFgwYKMy7x58xKDBg1K1KxZM+1ryLRUZqRYup/LpOQbXW7knFriDh06rJuCN13LHNLc2w0bNsyqaM5unQKraO6xUkSgkXMKsC780NeNhTkUPi+bIuHwURBoRES6sG6qhNTKYy0CjZxL7soVZBL8MNTTp0/3X0GgkQcKso4W63aymuwhX8HWYJRJkya5l19+OVgDTlshLzRRQevWrf3EBTqFlcttHNKHhSY/+OSTT3LyocFpqxzRy8hV4bQVJdvCaSsAkUKgAUMINGBISQQ6HwdkgCgyH2jCjMpSXYl7fTEXaE0op8vwUmnML7Ap2267bfBoLdWjqE1QuCnmAq27WZSfvqZVq1bBI6BiqiepLbTOc4ezp8SFuUDrLg+aaC6V5rEqf0cGIJWCfPjhh68XaNUj1ac4MVfLv/zyyw2msdFoJc0FDVSkadOmvp6k0v29pk2bFizFg7lA6+ZrulFcKt3HSTcRj/sBD+SH6oXqh+5Rlkph/uqrr4KleDAXaO339OvXL1j6jWacbN++fbAE/KZdu3bu5JNPDpZ+o1v1qD7FSjAEtKj0MnJZ6tevn5g5c2bw29fSGN2nn346sc0226T9GUppFtWHp556ar0x3Br/r5vkNWjQwD8n2YLHZiy3yUCrdO/ePbF8+fLgL6z1yy+/JO66665ErVq10v4MpbSK6sGdd97p60VIYU62yr7+6DmpYSbQlZTuP17VoluVvvTSS8Ff+M2yZct8S7311lun/TlKaRRt/z59+iSWLl0a1Iy1FGjVG9Wf8mEm0JWU7j+ei3LggQcmpkyZEvyVtbTBdC/ikSNH+u/XqVMnUb169bQ/T7FVFEhtb10mqe2veqD6kGrq1Kn+++WDHJZ0vzeTkm/mJjhIpQvVded/TeKuSevK0+kt3Tztrbfe8kfH58yZ45Ldrw1GmiG+NP6gfv36fvs3b97cde3a1c8UqllDJax7isG8efPcNddc4/r27VthHahqXPIdN9OBFt2+9LjjjnMPPvig23HHHdP+rbKyMj/RuzaoJm/XxtTbEoG3BlkKt7MCrRlTGjVq5Bo3brzBqSnRdv7hhx/cFVdc4QYPHpzXW9jmu06ZD7Roo2qeaN1vuPzwPpQ2Vf/kbpm74IIL3JgxY/LeO8t33EpiPKTexNGjR7sTTjjBPf/8827u3Ll5f2MRbdr+qgeqD6oXuqWOhV2tkmihU6nL1aVLF78f1blzZ7fbbrsxzruEKLSa9nfo0KH++Mk777xT0MEj+Y5byQU6/Ft169Z1O++8s2vbtq0P9r777uvDrXsZE3A7VL11xZSGcY4dO9YNGzbMjR8/3t8kT8dLCo1A54n+ZvhfD/9++FWf4sV4TcifCFRzj0ADhuQ7bvQtAUMINGAIgQYMIdCAIQQaMIRAA4YQaMAQAg0YQqABQwg0YAiBBgwh0IAhBBowhEADhhBowBACDRhCoAFDCDRgCIEGDCHQgCEEGjCEQAOGEGjAEAINGEKgAUMINGAIgQYMIdCAIQQaMIRAA4YQaMAQAg0YQqABQwg0YAiBBgwh0IAhBBowhEADhhBowBACDRhCoAFDCDRgCIEGDCHQgCEEGjCEQAOGEGjAEAINGEKgAUMINGAIgQYMIdCAIQQaMIRAA4YQaMAQAg0YQqABQwg0YAiBBgwh0IAhBBowhEADhhBowBACDRhCoAFDCDRgCIEGDCHQgCEEGjCEQAOGEGjAEAINGEKgAUMINGAIgQYMIdCAIQQaMIRAA4YQaMAQAg0YQqABQwg0YAiBBgwh0IAhBBowhEADhhBowBACDRhCoAFDCDRgCIEGDCHQgCEEGjCEQAOGEGjAEAINGEKgAUMINGAIgQYMIdCAIQQaMIRAA4YQaMAQAg0YQqABQwg0YAiBBgwh0IAhBBowhEADhhBowBACDRhCoAFDCDRgCIEGDCHQgCEEGjCEQAOGEGjAEAINGEKgAUMINGAIgQYMIdCAIQQaMIRAA4YQaMAQAg0YQqABQwg0YAiBBgwh0IAhBBowhEADhhBowBACDRhCoAFDCDRgCIEGDCHQgCEEGjCEQAOGEGjAEAINGEKgAUMINGAIgQYMIdCAIQQaMIRAA4YQaMAQAg0YQqABQwg0YAiBBgwh0IAhBBowhEADhhBowBACDRhCoAFDCDRgCIEGDCHQgCEEGjCEQAOGEGjAEAINGEKgAUMINGAIgQYMIdCAIQQaMIRAA4YQaMAQAg0YQqABQwg0YAiBBgwh0IAhBBowhEADhhBowBACDRhCoAFDCDRgCIEGDCHQgCEEGjCEQAOGEGjAEAINGEKgAUMINGBIJAK92WabBY8AuwpRzyMR6F133TV4BNjVrFmz4FH+RCLQhx9+ePAIsKsQ9TwSgT777LNd3bp1gyXAHtVv1fNEIhGsyY9IBLpNmzbu2GOPDZYAe4455hjXunVrH+h8hjoSga5fv7679NJLXYsWLYI1gB3Nmzd3PXv2dFtuuaWrVq2aL/kSiUDLgQce6K677jofbsAKdbV79erlOnbsmPcwe8nmPzLKysoSL774YmLrrbdWn4RCiXXZaqutEn379vX1ulAiFWhZs2ZN4v3330+0bNkyUb169bRvFIUS5aJ6q/o7fPjwxOrVq32dLpRIBlpl8uTJieR+daJZs2aJZDcl7RtHoUSpKMiqr8n95cSUKVNUmYNaXTjV9E/yxUSOXtaKFSvcqFGj3JAhQ1z//v3dtGnT8nqEEMhE6v6wDnyddNJJ7uijj3b777+/q127dvCdwopsoFMtX77cLVq0yCW7MC65T+KGDRvml4WAo1gaNGjgOnfu7M8vH3rooX65Vq1awXeLIxaBTqWXu2TJEjdu3Dj3+eefu6lTp7pvv/3WzZ8/35WVlQXPAnJLLe52223nmjRp4vbYYw+3zz77+BKeioqK2AU6Hf0X9KaGX4FSZSLQANaKzMASAFVHoAFDCDRgCIEGDCHQgCEEGjCEQAOGEGjAEAINGEKgATOc+38Za21O8KbzkgAAAABJRU5ErkJggg==;" parent="G4rwLLoVx2K-rOXY0CrV-170" vertex="1">
          <mxGeometry x="181" y="140" width="35" height="97.97" as="geometry" />
        </mxCell>
        <mxCell id="G4rwLLoVx2K-rOXY0CrV-26" value="" style="rounded=0;whiteSpace=wrap;html=1;strokeWidth=1;fontSize=12;fillColor=#808080;gradientColor=none;strokeColor=none;" parent="G4rwLLoVx2K-rOXY0CrV-170" vertex="1">
          <mxGeometry x="216" y="281.40999999999997" width="120" height="20" as="geometry" />
        </mxCell>
        <mxCell id="G4rwLLoVx2K-rOXY0CrV-28" value="" style="rounded=0;whiteSpace=wrap;html=1;strokeWidth=3;fontSize=12;fillColor=#FFE599;strokeColor=none;" parent="G4rwLLoVx2K-rOXY0CrV-170" vertex="1">
          <mxGeometry x="226" y="273" width="84" height="8.41" as="geometry" />
        </mxCell>
        <mxCell id="G4rwLLoVx2K-rOXY0CrV-65" value="&lt;font style=&quot;font-size: 14px;&quot;&gt;Blade Cast&lt;/font&gt;" style="text;html=1;align=center;verticalAlign=middle;resizable=0;points=[];autosize=1;strokeColor=none;fillColor=none;fontSize=12;fontStyle=1" parent="G4rwLLoVx2K-rOXY0CrV-170" vertex="1">
          <mxGeometry x="181" y="237.97" width="100" height="30" as="geometry" />
        </mxCell>
        <mxCell id="G4rwLLoVx2K-rOXY0CrV-62" value="" style="endArrow=classic;html=1;rounded=0;fontSize=10;exitX=1;exitY=0.5;exitDx=0;exitDy=0;" parent="G4rwLLoVx2K-rOXY0CrV-170" edge="1">
          <mxGeometry width="50" height="50" relative="1" as="geometry">
            <mxPoint x="159.49" y="281.40999999999985" as="sourcePoint" />
            <mxPoint x="202.5" y="281.40999999999997" as="targetPoint" />
          </mxGeometry>
        </mxCell>
        <mxCell id="G4rwLLoVx2K-rOXY0CrV-18" value="Polymer &lt;br&gt;Solution" style="text;html=1;align=center;verticalAlign=middle;resizable=0;points=[];autosize=1;strokeColor=none;fillColor=none;fontStyle=1;fontSize=11;" parent="G4rwLLoVx2K-rOXY0CrV-170" vertex="1">
          <mxGeometry x="37.50285714285714" y="85.49673469387756" width="60" height="40" as="geometry" />
        </mxCell>
        <mxCell id="G4rwLLoVx2K-rOXY0CrV-57" value="" style="endArrow=classic;html=1;rounded=0;fontSize=10;entryX=0.5;entryY=1;entryDx=0;entryDy=0;exitX=0.28;exitY=0.994;exitDx=0;exitDy=0;exitPerimeter=0;" parent="G4rwLLoVx2K-rOXY0CrV-170" source="068pTRy_MaGUJHBF9QUh-5" target="G4rwLLoVx2K-rOXY0CrV-25" edge="1">
          <mxGeometry width="50" height="50" relative="1" as="geometry">
            <mxPoint x="73" y="131.99999999999994" as="sourcePoint" />
            <mxPoint x="90" y="90" as="targetPoint" />
          </mxGeometry>
        </mxCell>
        <mxCell id="G4rwLLoVx2K-rOXY0CrV-110" value="" style="ellipse;whiteSpace=wrap;html=1;strokeColor=none;strokeWidth=5;fontSize=12;fillColor=#FFE599;" parent="G4rwLLoVx2K-rOXY0CrV-170" vertex="1">
          <mxGeometry x="300" y="265" width="10" height="16.41" as="geometry" />
        </mxCell>
        <mxCell id="068pTRy_MaGUJHBF9QUh-6" value="&lt;font style=&quot;font-size: 14px;&quot;&gt;Precursor&lt;/font&gt;" style="text;html=1;align=center;verticalAlign=middle;resizable=0;points=[];autosize=1;strokeColor=none;fillColor=none;fontSize=12;fontStyle=1;rotation=0;" parent="G4rwLLoVx2K-rOXY0CrV-170" vertex="1">
          <mxGeometry x="68.99" y="36.00000000000006" width="80" height="30" as="geometry" />
        </mxCell>
        <mxCell id="G4rwLLoVx2K-rOXY0CrV-108" value="" style="rounded=0;whiteSpace=wrap;html=1;strokeWidth=1;fontSize=12;fillColor=#959393;gradientColor=none;strokeColor=default;" parent="G4rwLLoVx2K-rOXY0CrV-170" vertex="1">
          <mxGeometry x="292.5" y="243" width="7.5" height="30" as="geometry" />
        </mxCell>
        <mxCell id="EAdZtr5CvZvqk6wnGcya-10" value="" style="rounded=1;whiteSpace=wrap;html=1;fillColor=#fff2cc;strokeColor=none;" vertex="1" parent="G4rwLLoVx2K-rOXY0CrV-170">
          <mxGeometry x="122.5" y="83" width="50.5" height="45" as="geometry" />
        </mxCell>
        <mxCell id="EAdZtr5CvZvqk6wnGcya-11" value="" style="shape=image;html=1;verticalAlign=top;verticalLabelPosition=bottom;labelBackgroundColor=#ffffff;imageAspect=0;aspect=fixed;image=https://cdn1.iconfinder.com/data/icons/ionicons-outline-vol-1/512/beaker-outline-128.png" vertex="1" parent="G4rwLLoVx2K-rOXY0CrV-170">
          <mxGeometry x="104" y="55" width="83" height="83" as="geometry" />
        </mxCell>
        <mxCell id="EAdZtr5CvZvqk6wnGcya-12" value="Solvent" style="text;html=1;align=center;verticalAlign=middle;resizable=0;points=[];autosize=1;strokeColor=none;fillColor=none;fontStyle=1;fontSize=11;" vertex="1" parent="G4rwLLoVx2K-rOXY0CrV-170">
          <mxGeometry x="115.50285714285712" y="90.49673469387756" width="60" height="30" as="geometry" />
        </mxCell>
        <mxCell id="G4rwLLoVx2K-rOXY0CrV-187" style="edgeStyle=orthogonalEdgeStyle;rounded=1;orthogonalLoop=1;jettySize=auto;html=1;fontSize=14;strokeColor=#000000;strokeWidth=4;curved=0;" parent="1" edge="1">
          <mxGeometry relative="1" as="geometry">
            <mxPoint x="601" y="620" as="targetPoint" />
            <Array as="points">
              <mxPoint x="291" y="650" />
              <mxPoint x="601" y="650" />
            </Array>
            <mxPoint x="291" y="620" as="sourcePoint" />
          </mxGeometry>
        </mxCell>
        <mxCell id="G4rwLLoVx2K-rOXY0CrV-198" style="edgeStyle=orthogonalEdgeStyle;rounded=1;orthogonalLoop=1;jettySize=auto;html=1;fontSize=14;strokeColor=#000000;strokeWidth=4;curved=0;entryX=0.5;entryY=0;entryDx=0;entryDy=0;exitX=0.539;exitY=0;exitDx=0;exitDy=0;exitPerimeter=0;" parent="1" target="G4rwLLoVx2K-rOXY0CrV-15" edge="1" source="G4rwLLoVx2K-rOXY0CrV-162">
          <mxGeometry relative="1" as="geometry">
            <mxPoint x="421" y="130" as="targetPoint" />
            <mxPoint x="501" y="240" as="sourcePoint" />
            <Array as="points">
              <mxPoint x="911" y="315" />
              <mxPoint x="911" y="260" />
              <mxPoint x="295" y="260" />
              <mxPoint x="295" y="280" />
              <mxPoint x="294" y="280" />
            </Array>
          </mxGeometry>
        </mxCell>
        <mxCell id="xoyEL0j7F7SFWpHzrwaf-6" style="edgeStyle=orthogonalEdgeStyle;rounded=1;orthogonalLoop=1;jettySize=auto;html=1;fontSize=14;strokeColor=#000000;strokeWidth=4;curved=0;" parent="1" edge="1">
          <mxGeometry relative="1" as="geometry">
            <mxPoint x="651" y="620" as="sourcePoint" />
            <mxPoint x="911" y="590" as="targetPoint" />
            <Array as="points">
              <mxPoint x="651" y="650" />
              <mxPoint x="911" y="650" />
            </Array>
          </mxGeometry>
        </mxCell>
        <mxCell id="EAdZtr5CvZvqk6wnGcya-1" value="" style="group" vertex="1" connectable="0" parent="1">
          <mxGeometry x="791" y="314.9980876737437" width="230" height="280.0019123262563" as="geometry" />
        </mxCell>
        <mxCell id="hI8DOcPEEPtuhdS6lUov-5" value="" style="group;strokeColor=#94c1ff;strokeWidth=4;container=0;" parent="EAdZtr5CvZvqk6wnGcya-1" vertex="1" connectable="0">
          <mxGeometry x="18" width="202" height="270" as="geometry" />
        </mxCell>
        <mxCell id="068pTRy_MaGUJHBF9QUh-23" value="" style="group" parent="EAdZtr5CvZvqk6wnGcya-1" vertex="1" connectable="0">
          <mxGeometry x="60" y="40.00096074537953" width="120" height="217.07316328089183" as="geometry" />
        </mxCell>
        <mxCell id="G4rwLLoVx2K-rOXY0CrV-150" value="" style="rounded=0;whiteSpace=wrap;html=1;strokeColor=default;strokeWidth=1;fontSize=20;fillColor=#CCCCCC;fontColor=#333333;fillStyle=solid;container=0;" parent="068pTRy_MaGUJHBF9QUh-23" vertex="1">
          <mxGeometry x="55" y="80.27462960134403" width="10" height="61.544218726134076" as="geometry" />
        </mxCell>
        <mxCell id="G4rwLLoVx2K-rOXY0CrV-154" value="" style="rounded=0;whiteSpace=wrap;html=1;strokeWidth=3;fontSize=12;fillColor=#808080;gradientColor=none;strokeColor=none;container=0;" parent="068pTRy_MaGUJHBF9QUh-23" vertex="1">
          <mxGeometry x="25" y="149.5307774553229" width="70" height="7.05666717580571" as="geometry" />
        </mxCell>
        <mxCell id="G4rwLLoVx2K-rOXY0CrV-155" value="" style="rounded=0;whiteSpace=wrap;html=1;strokeWidth=3;fontSize=12;fillColor=#FFD966;strokeColor=none;container=0;" parent="068pTRy_MaGUJHBF9QUh-23" vertex="1">
          <mxGeometry x="35.5" y="146.50649152283472" width="49" height="3.024285932488161" as="geometry" />
        </mxCell>
        <mxCell id="G4rwLLoVx2K-rOXY0CrV-156" value="" style="rounded=0;whiteSpace=wrap;html=1;strokeColor=default;strokeWidth=1;fontSize=20;fillColor=#CCCCCC;fontColor=#333333;fillStyle=solid;container=0;" parent="068pTRy_MaGUJHBF9QUh-23" vertex="1">
          <mxGeometry x="35.5" y="18.73041087520994" width="49.5" height="61.544218726134076" as="geometry" />
        </mxCell>
        <mxCell id="G4rwLLoVx2K-rOXY0CrV-157" value="" style="shape=trapezoid;perimeter=trapezoidPerimeter;whiteSpace=wrap;html=1;fixedSize=1;fillStyle=solid;strokeColor=default;strokeWidth=1;fontSize=20;fillColor=#CCCCCC;gradientColor=none;container=0;" parent="068pTRy_MaGUJHBF9QUh-23" vertex="1">
          <mxGeometry y="156.58744463112862" width="120" height="60.48571864976322" as="geometry" />
        </mxCell>
        <mxCell id="G4rwLLoVx2K-rOXY0CrV-158" value="" style="rounded=0;whiteSpace=wrap;html=1;strokeColor=default;strokeWidth=1;fontSize=20;fillColor=#CCCCCC;fontColor=#333333;fillStyle=solid;container=0;" parent="068pTRy_MaGUJHBF9QUh-23" vertex="1">
          <mxGeometry x="45.5" width="30" height="18.73041087521001" as="geometry" />
        </mxCell>
        <mxCell id="G4rwLLoVx2K-rOXY0CrV-162" value="&lt;font style=&quot;&quot;&gt;&lt;font style=&quot;font-size: 20px;&quot;&gt;&amp;nbsp; &amp;nbsp; Compression Tester&amp;nbsp;&lt;/font&gt;&lt;/font&gt;" style="text;html=1;align=center;verticalAlign=middle;resizable=0;points=[];autosize=1;strokeColor=none;fillColor=none;fontSize=12;fontStyle=1;container=0;" parent="EAdZtr5CvZvqk6wnGcya-1" vertex="1">
          <mxGeometry x="-5" width="230" height="40" as="geometry" />
        </mxCell>
        <mxCell id="EAdZtr5CvZvqk6wnGcya-2" value="" style="group" vertex="1" connectable="0" parent="1">
          <mxGeometry x="551" y="250" width="152.84" height="197.35" as="geometry" />
        </mxCell>
        <mxCell id="G4rwLLoVx2K-rOXY0CrV-146" value="" style="shape=image;verticalLabelPosition=bottom;labelBackgroundColor=default;verticalAlign=top;aspect=fixed;imageAspect=0;image=data:image/png,iVBORw0KGgoAAAANSUhEUgAAAgAAAAIACAYAAAD0eNT6AAAABHNCSVQICAgIfAhkiAAAAAlwSFlzAAAOxAAADsQBlSsOGwAAABl0RVh0U29mdHdhcmUAd3d3Lmlua3NjYXBlLm9yZ5vuPBoAACAASURBVHic7N13mBVF1sfx772TZ2DIUXIWwYwgCmIAwYgJFAUVd81hfc3gBvMqxjXnXcW8JlSiEUEwi+JKlCwKkien+/7RjEoYZqa7+nb6fZ7nPuvC9Okjg3NOV1VXxRCRoGgNdAI6bv10AtoAdYEMIBdIBep7lWAAlQObt34KgHxgDfAjMB9YuPWzbOvXiv9lAp3/8OkCtMf67yMXyAGysf47yd/6yQM2bf3nlcACtv3+b0zqv0GSxLxOQESq1AE4AjgY6A+09TadSCsAvgZmAO8CHwPFnmYkleoAffj9v5UDgDTD9/gRmIn1/Z8KLDUcX0QiLgUYCDwNrAMS+vj2kwe8DZyO9UQpydUKuAr4DCgj+d//BcA4YC+3/0VFJNwOAO4FVuN9YdOn9p8twLPAYKwmTtxRDzgbeA9rOsbr73vl5zvgWqzpOBGRasWAY7GGFL3+AaaPuc9S4DKsOWYxoxnwD6x5eK+/v7v6lANvYTX0IiI7SANGAXPx/geWPu591mAVrQaIXe2B+4BCvP9+1vYzA6vBFxEB4DhgMd7/cNIneZ8NwF+w3s6QmmkMPI43c/umPx8APcz+8YhIkHTEWjDm9Q8jfbz7zMNapS5Vi2ONjq3B+++XyU8p1khGrrk/KhHxuwzgZqAI738I6eP9pwJ4BmiKbG9/4HO8/x65+VkFnGrqD0xE/KsL8BXe/9DRx3+fX4AjEbAWw16GtaeC19+XZH1ewXqjQURC6GT8v2JZH28/FVjDwqY3rAmSxkR3amw+sLfzP0IR8Yts4Cm8/+GiT3A+HwItiZ7+WFvuev3n7+WnELjA6R+kiHivAdb2sF7/UNEneJ9VwJ5Ex0loXcwfP/djLYAUkQBqCczB+x8k+gT3sx5rH/uwuxh/7eLnl8+rWIcYiUiA7I51UpzXP0D0Cf4nHziacIphbYzk9Z+xnz/vkeRXBXUaoIh9vYDJQMNk3TAtLY399t+fPfbYg06dOtGpcxfat29PdnY2DerXJys7m9TUVLZs3syWvDwKCgpYsWI5CxcuZNGChcybN4/PPvuUvLy8ZKVMSkoKdz/4CEcfNzRp96z04vhnuP7qK2xdW7d+E0pLiigq2GI4q10qA84CnkvmTV0WAx4Czk/yfVcDs7AO7qk81nc11smOBVgLdSuPBq4LNMLas6Mz0BXYF6vBT6bPgEO35uc6NQAi9vTCOha0vts36tq1K8cPPYH+h/SnT58DyclxdvhcWVkZX37xBdOnf8TEiRP5dPZsEomEoWx3Li0tnSefe4G+B/d39T7bc9IAHDL0z4y8+gGWL5jDvC/e58uP3uDH7z8jUVFhOMsdlGM1AePdvlGS3IZ1WI7bioCJwBTgI6yV9k41Bw4BDsNau9DIQMzqPIu1IZLr1ACI1J7rxb9Jk6YMP/VURowYwT777uvWbQBYsmQJL77wPM8/9xyLFi1y7T45derw/KtvskfP5K13c9oAnHntw9v82oa1q5g1aTwfvfkka1f9aCLFqoSlCbgCuNPle3yEVTRfxXqqd0sa1omPpwNDsTb6ckMC6I21MZKrtPJQpHZcLf5t27blnvvuY/7ChYy7807Xiz9A+/btuW7MWOZ8N5cXXnzJtXvm5+VxzhmnsnzpUlfiJ0ODJrtx1Khr+Ocr8/jLXRPo2KO3W7dKAf4NnOHWDZLgTGCcS7ErsDbU2Q8YADyJu8UfrC1938Laza8DcBfgxlxaDKv5c50aAJGac634N2/egscef4K5//uB88+/gKysLNO3qFY8HmfoCSfwyazZTHj7bXr0MH+Gya9r13L2iGFs2bzZeOxkisXj7HnQUYx9YiZX3DeJ1p1dGdUIchPQC3gUd0aZ/4s1Nz8Ma7dNL/wEXAm0Bf6JtZOhSf0Mx9spNQAiNeNK8U9NTeWSSy9jznffMXLUKFJT/XFo3MCBg5j16WeMu/NOcnPNLkxetnQJY6/+P6MxvbRH74H8/T+fM/LqB8ipa/z03yA2AY2wns5ND5HPBwYBp2At7POD9cB1WPs4TDEYt7nBWFVSAyBSPVeKf/fu3flk9qfcMW6c8SJrQmpqKhdfcilzvvuOgQMHGY09ccKbvPTcs0ZjeikeT+HQE8/nphfm0LOP8W3+g9QExLHm49sajFkB3IpVZKcZjGvSAqz1ASOATQbiJWWITA2AyK65UvzPOvtsPp75CT179jQZ1hXNm7fgzbfe4qabbzY6QnHz38aycP48Y/H8oH7jlvzlnrcZccW9pKQa3eY/KE3AFcAQg/EqD04aC5QYjOuWF7DWJXzhMM5cA7lUSw2ASNWMF//09HSefOppHn7kUbKzs02FdV0sFuPKq65m6rR3adykiZGYhYWFXHbBuZSUBOHnes3FYjGOOOVirrp/KrkNjJ786/cmoDNwg8F4n2AdmPOuwZjJsBg4CGsNhF2vGspll9QAiOyc8eJft25dXn/zTUacfrqpkEl3YN++vP/Bh7Rr185IvAXzfuCpxx6u/gsDqMs+/bj+qU9o1rqzybB+bQJiwGOAqdWrbwMDgZ8NxUu2EqyNj/5u49p5WCMJrlMDILKjfbF2+DNW/Bs0bMjb70zksMMONxXSM507d+bD6dPZc6+9jMR78J67+GnVSiOx/KZxi3Zc9+iHtOli5s9qq8omICmbxdTQn7FexzPhWeBEkrQbnstuBM7G2uGxJgqxmruafr0jagBEttULa09uY9v7Nm3ajPc/+JADerv2znjSNWvWnEmTJtO1a1fHsQoLC7nz1psNZOVPuQ2bcdWD79Kum9H9FVKwjp72w0hAPaxFeiY8jbV/QKmheH7wb+A4qt+nYBXWNsBfup1QJTUAIr8zPuzftGkzpkybRrdu3UyF9I2GjRox4e13aNnS+XH2b73xGp9/OttAVv6UU7cBV9w/xY0m4N943wRcgZktcv+LNZLg7r7U3piEdb7AXcDy7X5vAdZUQXfg02QmpQZAxKLib0ObNm148623qVevnqM4iUSCcbfcaCgrfwppE9AU+IuBOJ9jTWmUG4jlV2v4ffOg5kAXoDFWY3AjSXr174/UAIio+DvSo0cPHnn0Mcdxvvri81CPAkAom4DrsE7Sc+Jn4ASs+e+o+AXrdMJ1XiahBkCizviCvyZNmjJpypRIFP9KQ084gXPPO89xnMcfut9ANv6WU7cBV94/lfbde5kMm4K1eC7ZZ9g7ffqvwHryX+UwjtigBkCizJUFf1PffZfu3bubChkYt98xzvHGRh+8O40F834wlJF/Zdetz//dN9H0SEAQ3YN/d/cLPTUAElUa9jcsMzOTBx96mHjc/o+VRCLBE488ZDAr/3JpOiBIfgT+6nUSUaYGQKJIxd8lvQ44gDNGjnQUY9Jbb1KQn28oI3+LeBNwDdGa9/cdNQASNZrzd9nNt9xCvXr2/3gLCwuZNmWSwYz8zaU1AUFQecCPeEQNgESJ5vyToEmTplx8ySWOYrzz5uuGsgmGiK4J6AzMBoZ5nUhUqQGQqNCTfxJddNFFZOfk2L5++ocfsHHDeoMZ+V9ERwKygOextsuVJFMDIFGgJ/8ka9CwIaeOsP9aellpKVMnTTSYUTBEdCQgBXgCOM3rRKJGDYCEnRb8eeRP519ALBazff2sGR8bzCY4IrowMA48CezndSJRogZAwkzF30Pt2rVj3/3tD2d/NnuWwWyCJaJNQBbwOtbhQpIEagAkrDTn77F4LMYxQ0+wff0vP69m+dKl5hIKmIiuCWgN3OZ1ElGhBkDCSHP+fhCLMeSY40lJSbEd4tPZnxhMKHgiuibgPKCP10lEgRoACRsN+/tFAho3aUL3Hva3B/7q888MJhRMv00H7B6Z6fE48A+vk4gCNQASJir+PpLYeqx7rz4H2o6xeOECU+kEWk7dBlzz0Pv0OTIyC+WPBPbxOomwUwMgYaHi7zMJq/5zgIMGYOmSHw1lE3wZWTmce8OzjHn8Y/odezaNW7YnNS3D67TcdLHXCYRdqtcJiBig4u9Dia0dwD772V/Etn7dOjZs3ECD+g1MpRV4nXoeSKee9psqNyQSCbZsWMPKxXP5bNrLfDLpWcpKS5yGHQqcD5Q6z1B2RiMAEnQ9UfH3pfKKCgAaNW5Mbq79N7t+mPu9qZTEJbFYjNyGzeje63DOGvMoNz0/h9adHW/z3xA41EB6UgU1ABJkucAEVPx9qaw88ds/t+vQwXacxYsWm0hHkqhZ686MeWw6bbs6nsbvZyIf2Tk1ABJkVwDtTAVT8TcnkUhQkaj47f+3bdfedqzNmzZRXFRsIi1JooysOlx8+39Jz8hyEiZS7z8mmxoACaoYMNpUMBV/s8oqKrb5/40aN7Ydq7CwkC15BU5TEg80at6WQ0+6wEmIvUzlIjtSAyBB1R5oZSKQir95JaXl2/z/nDp1bMcqKiwgP18NQFDtd4SjVxebmspDdqQGQIKquYkgKv7uKC3ftgFwcjRwYWEBZWXllJaWOU1LkiQBFJTAmi2Q2nRP4im2XzhLA+x3j7JLeg1QgirPaQAVf/eUlG3bAGRm2p8HLim25v8Li4pJS9OPrEQCisugrAIqEtV/fVIkoDwBFRVQUg5/HACKx1PIqtOA/E1r7Uavg4H/3mVH+q9JgmoxUARk2rlYxd89iYoEZds1AEVFhbbjpWdYm90UFRaRW9f+SEKQJRKQX2I9VReXgl/qfk1UVJRTmLfBSQgVf5doCkCCKh+YYudCFX93FZWW7VCg8vPs/wzPysoGrBGAKMorhp82wvp8KApY8Qf4+cc5VJTbnr4pRQ2Aa9QASJDdDFRU+1V/oOLvvsLSHTduK8jPtx0vc2sDUF5a9tvuglFQVg6rN1mFvzzA/9rfffCCk8t/MZWH7EgNgATZF8Bfa/rFKv7uSySguGTHp71f19qe/yU722oAEhCZhYDFZfDL5m3n0oNo4y9L+eKdR5yEmGMqF9mRGgAJtIKiono33Xwz8fiu/yr36NGDD6dPV/F3WVFpKRU7eUpftnSJ7Zh/fIWwrCz8DUBhqVX8g/zUD1BcuIUXbzqJ0hL76z+Ar03lIztSAyCBVVhcfEssFr/6yquuZvZnn3PSySdTZ7v3zffYYw/uvPtuZnwyi/bt7e9GJzWTX7TzA2CWLbHfADRvsdtv/1xSEu5zYQpL4dctXmfh3K8r5/PUFf34+UfHD/DTTeQjO6e3ACSQCouLb4HYmMr/37NnT8Y/9zylpaUsX76cgoICWrZo4WgHOqmdsooKincyRP/r2rVs3rzJdtyWu7X+7Z8rgv5YvAuFpbA2oMU/kUiQv/EXflnyHXOnv8y374+nvMxxs7YO+MBAelIFNQASONsX/z9KS0ujY8eOyU5JgPzCnT/9f/PVF7ZjNmjYcJtNhCoqarXmMzBqU/yXfz+Tr6Y8ydLvppO3fjVlpaF9O+INIPxzPh5SAyCBUlRcfHuC2NVe5yHbqqiooKB45w3Ap7M+sR13t1Zttr1PCN8CqOmwf0lRPhPuO5e5H73kflLeSwD3e51E2KkBkMAoLC6+RcXfn7YUllRZnD+fPct23FZt2m3z/xOJgC+L305Nn/wL8zbw7NjB/LTwS/eT8ocp6A0A16kBkEDY1bC/eKsiUUF+FU//v65dyw/fz7Ude4+e2x4Gl0jEbMfym5o++RfmbeDZMUfy06Kv3E/KHyqAv3udRBSoARDfU/H3t035xVVu0PPOhDcoL7f/1N5z7/22+f/Vve4ZFDV98i/K38j464dEqfgDPAR85nUSUaAGQHxNc/7+VlxWVuXcP8A7b75uO3bjJs1o0XK3bX4tHg/+CECRnvx3ZRkw1uskokINgHhhADAU6IZ10tdPwIfAS1iv/gCa8/e7RAI25VW9ycuKZcv4+kv7bwD03HufHX4t6A1AUal1RG51Ilr8C4ATgM1eJxIVagAkmdoD/wH67eT3TgFuA/4G3Kdhf//bUlhMaXnVr+U9/fgjjvbu33vfXjv8WpCnAFT8d6kCGI12/ksqNQCSLL2AicCudubJBe4dcNhhZ0Jsx8c/8Y3isjK2FBZV+fsb1q/nlReesx0/NS2Ng/oftsOvp6Sm2I7ppaLarPaPXvEvB87CGgGUJApuOy1B0guYyq6L/28+fP/9fR5++CF3MxLbyisSrN+y6/3dn336CQoL7e8Bv/8BB1I3N3eHX89IT7cd0yuVxb+6sZCIFv8CYDgw3utEokgNgLitsvjXr81FN95wAxs3bnQnI7EtkYD1eQW73JFv7Zo1PPWYoxPgGHD4kTv8WgxISwvWoKWK/y7NB/oAr3qdSFSpARA32Sr+ABs3bOCtCRPMZySObMgroKSaI3nH3XoTeVvsb2qfmZlFn4P77/DrqampxGLBWQSo4l+t64HvvE4iytQAiFtsF/9KM2Z8bC4bcWxTfhGF1ZzG9/WXn/P6K86mcvsfegRZWdk7/Hp6RpqjuMmk4l8jdwA7fqMladQAiBscF3+An1f/bCYbcWxLYRF5Rbs+dKaoqIixV13haOV/LBbj5NNG7vT3MjIzbMdNpsISa7W/in+12gM3eZ1ElKkBENP2BSbjsPgD1M2t6zwbcSyvqJjNBdWfOHfL369nwbwfHN2rz0H9adt+56c5ZmdnOYqdDPnFsDav+q+L6A5/O3M5cLTXSUSVGgAxqRfwHtDQRLDdd9/dRBhxIK+omE35Vb/uV2nSWxN44dn/OL7fyaeN2umvp6amkJHu3ymABLC5ENblV/+1hXkbeOa6QaxaYH+TpJ0oB0ZirZVM5udeh3nHgCeAVg7jiA1qAMQUI8P+lWKxGMcdP9REKLGppsV/3g//Y8xVlzu+3x4996LHnnvv9PeysjIdx3dLRYW1te/GGrz16NKwf+V79F68SncbYH/Fp6U58Drg/yEeM2JY/85dgSZeJqIGQEwwWvwBjjv+eHr27GkqnNRSXmHNiv+qlSsYPWI4WzY72701Fosx+vxLq/z9nGx/rhUrKIHVm6zDfarjYvE/E+/eo18D3GMgzv5Y/w7B3OmpZpoDdwMrgNXAPKw/v0XADUC9ZCekBkCcMl78W7duzf0PPGAqnNRSXlExmwqqL/4bN6xn9IjhrPnF+WLNQwcOrvLpPyUeJyvHXyMApeXWKv9f86C8BmseXS7+9rdcNOMu/nCGhwMnAo9jPSGHzVFYBf9yYLftfq8j1hboP2Dti5A0agDECWML/io1adKUNya8RZMmTU2FlFqo6bD/5s2bGH36qSxetNDxPbOysjlnF0//dXPrEPfJ+/+lZdY8f02f+gHyNv7Cf649wo3ifzbeF3+wDu+51lCss7HOC/Hvgo/aOxt4k+qf8FsA72ONhiSFGgCxy+iCP4BmzZoz9d136d69u6mQUgs1HfbftGkjo4adxLffmDm3ZcSZ59B4Fw1fbm4dI/exK5GwVvev2QKrN1v/XFMbfl7CU1cews8/zjGZUuWT/7Mmgzr0JPCBoVgjsdYE+HPep3b+ATxFzc/dycJq6pKy5aUaALHD+LB/s2bNmTx1Kt26dTMVUmqhpsP+mzZt5MzhJzP3WzMFrX2HTpw47PQqfz8rK9Oz7X9Ly62iv3Kj9dRfVMMn/kpLv5vOE5f3Zf1Pi0ym5Zdh/+0lgHMB+wdAbOtorAeMFobiJVsG1nTG321c2wUYYTadnQvWxtriByr+IVPTYX/TxT8jM5MxN9xGalrVo72xWIwNG+0vMCyoQVNTleKy2hd9gEQiwacT7mfak9dQXmYjQNX8WvwrLcKayx5nKF4f4BusEYGphmImQyeskw33dRDjROAZM+lUTQ2A1IaKf8h4VfwBLrzsKtq067DLrykoKKSgwP5DZX5+ge1r7dj860revPfPLP5qmunQfi/+le4GDsVa9GZCU2AS1rbB/wBqMQHjidOBh7CONnciKa9AaQpAakrFP2RqM+dvuvgPOPxIBh8Tnn0eKsrL+OytB3nogr2jXPwBKrCe2JcajBnHWmT4LbDjMZH+0BXr5+N4nBd/gKRsg6oRAKkJFf+Q8WrOH6BV67ZcdtVYY/G8tujLqUx76hp+WeLKwXZBKv6V1gMnAzMAk+9vdsF66+g1YAzWccJeawRcDfwFSDcYNykHoagBkOqo+IeMl8P+DRo24uY77yc7J8dYTC8kEhUs+PQdpr90K6vmf+7WbYJY/Ct9ibUo8D+Yf6//RGAo1psCt229V7LtBlwB/Blw4zWV6S7E3IEaANkVFf+Q8bL4Z+fkcPOd99Oi5fb7oATHprUrmPPes3w1+Uk2rlnm5q2CXPwrPYu11e1dLsSOAydt/UzHGnr/L7DBhXtVSgcGY83zH4+10t8NCeDfLsXehhoAqYqKf8h4WfxT09L42y130qlzV2Mxk6GivIzVi79hyTfv8cOsN6wDfBwcd1xDYSj+le4GGgPXuXiP/ls/92MtGJwKfIi1s55TLYEBwGHACRjc92QXngWMnhRVFTUAsjMq/iHjZfGPx+NcPfZG9tnvAGMxk2HeJ28w98MXKS50etZNrZRhFf/nk3lTl40FGgDnu3yfDKypgcrVpb8As7HWCiwEFmDNredv/WzEGr7P2fppCnTAWmvQBes1vmR3rJ8BFyTrZv7YX1P8ZF9gGgY73SZNmjJ56lTt8OeR2mzve9appxjb4U9qrQAYBrzjdSIuiGFtimNnY5yoeB9rlMHZyVq1EOaTl6T2VPxDRsU/MDZgvTv/nteJuOhDrEODBqOHz+29hrWeIT+ZN1UDIJVU/ENGxT8wfgKOIEnzvh77DJiLtYhOU9CW+4FzAKPbRtaENgIS0ME+oVObOX+TB/tIrX2AdfqbK5sI+NRrwEBgpdeJeKwIa13EpVgbKCWdGgBx5UjfiZMna8GfR2rz5H/2acOMLviTGksAt2MVwtUe5+KFGcDewNteJ+KR+cCBwKNeJqEpgGjTsH/IaNg/ENZgzfc+itUIRFUh8CLW+ofDiE49ehZrCmS514loBCC6NOwfMhr2970E1s54PQjW6XZuSgD3AX2x1geE2SpgODAKyPM4F0ANQFRp2D9kNOzve3OwNqs5C1jrbSq+9CXW8b9nEr4/nzLgX0B34GWPc9mGXsWIHm3yEzJebvIj1dqA9e77Q1g7/En1GgG3Yq2MD/q0wHtYi/z+53UiO6MGIFo05x8ymvP3rTXAw8C9WDvOSe21Ay7HOnAny9tUam0m1iLPt7xOZFfUAESHin/IqPj70lKsov8Y1iI3ca4pcCFwGQZHLl1QAUwEbgRcOyLSJDUA0aDiHzIq/r5SiPU627NYa2uSvqFLRGQBx2AtohuMfzYS+h/wCvAM8KPHudSKGoDw05x/yGjO3xe2YG3i8yLwJtY+/pI8LYFTgVOwNlJKdjMwD+v7/hwB3sRJDUC46ck/ZPTk75l8YBbW3O4MrDPoSzzNSCrlYG2qczBwENbbFumG7/Ejv3/vJ+ODd/hNUAMQXnryDxk9+buiDOtpfhO/HxO7FljM78fILsT6ge/Jdq1SaxlAR34/1rcz1oLCBkBdfj/+tz7W+/iV3/cNW/93JdseIbyQJJ7Ql0xqAMJJT/4h4/GTfzlwNtYct4iEhBqA8FHxDxkVfxFxgxqAcFHxDxkVfxFxixqA8FDxDxkVfxFxkxqAcFDxDxkVfxFxmxqA4FPxDxkVfxFJBjUAwabiHzIq/iKSLGoAgkvFP2RU/EUkmdQABJOKf8io+ItIsqkBCB4V/5BR8RcRL6gBCBYV/5BR8RcRr6gBCA4V/5BR8RcRL6kBCAYV/5BR8RcRr6kB8D8V/5BR8RcRP1AD4G8q/iGj4i8ifqEGwL9U/ENGxV9E/EQNgD+p+IeMir+I+I0aAP9R8Q8ZFX8R8SM1AP6i4h8yKv4i4ldqAPxDxT9kVPxFxM/UAPiDin/IqPiLiN+pAfCein/IqPiLSBCoAfCWin/IqPiLSFCoAfCOin/IqPiLSJCoAfCGin/IqPiLSNCoAUg+Ff+QUfEXkSBSA5BcKv4ho+IvIkGlBiB5VPxDRsVfRIJMDUByqPiHjIq/iASdGgD3qfiHjIq/iISBGgB3qfiHjIq/iISFGgD3qPiHjIq/iISJGgB3qPiHjIq/iISNGgDzVPxDRsVfRMJIDYBZKv4ho+IvImGlBsAcFf+QUfEXkTBTA2CGin/IqPiLSNipAXBOxT9kVPxFJArUADij4h8yKv4iEhVqAOxT8Q8ZFX8RiRI1APao+IeMir+IRI0agNpT8Q8ZFX8RiSI1ALWj4h8yKv4iElVqAGpOxT9kVPxFJMrUANSMin/IqPiLSNSpAaiein/IqPiLiKgBqI6Kf8io+IuIWNQAVE3FP2RU/EVEfqcGYOdU/ENGxV9EZFtqAHak4h8yKv4iIjtSA7AtFf+QUfEXEdk5NQC/U/EPGRV/EZGqqQGwqPiHjIq/iMiuqQFQ8Q8dFX8RkepFvQFQ8Q8ZFX8RkZqJcgOg4h8yKv4iIjUX1QZAxT9kVPxFRGonig2Ain/IqPiLiNRe3OsEkkzFP2RqU/zPPm2YG8V/NCr+IhJAURoBUPEPmdoW/zlff2Xy9pXF/xmTQUVEkiUqDYCKf8io+IuIOBOFBkDFP2RU/EVEnAt7A6DiHzIq/iIiZoS5AVDxDxkVfxERc8LaAKj4h4yKv4iIWWFsAFT8Q0bFX0TEvLA1ACr+IaPiLyLijjA1ACr+IaPiLyLinrA0ACr+IaPiLyLirjA0ACr+IaPiLyLivqA3ACr+IaPiLyKSHEFuAFT8Q0bFX0QkeYLaAKj4h4yKv4hIcgWxAVDxDxkVfxGR5AtaA6DiHzIq/iIi3ghSA6DiHzIq/iIi3glKA6DiHzIq/iIi3gpCA9ALmArUNxWwWbPmTJ46lW7dupkKKbVQ0+K/adNGzhx+MnO/nWPy9uXAWcB4k0FFRILG7w1Ad+Bj9OQfGnryFxHxBz83ALsBM4G2pgKq+HtLxV9ExD/iXidQhXrARFT8Q0PFX0TEX1K9TmAnGKvKzgAAIABJREFUsrGK/56mAmrO31ua8xcR8R8/jgA8APQ1FaxJk6ZMnDxZxd8jtXnyHz1iuBvFfzQq/iIiO/DbGoBhwEumgmnY31sa9hcR8S8/NQAdga+AXBPBVPy9peIvIuJvfpkCSAOeQ8U/FFT8RUT8zy+LAK8HepsIpAV/3tKCPxGRYPDDFEAH4Hsg02kgPfl7S0/+IiLB4YcRgHswUPwbN2nC1Hff1ZO/R/TkLyISLF6vARgIHOc0SHZ2Nv/976sq/h7Rq34iIsHj5RRAKtbQfxcnQdLT03n19dc54oiBZrKSWtGTv4hIMHk5AjAch8Uf4IEHH1Lx94iKv4hIcHnZAFzhNMDIUaMYOWqUiVykljTsLyISbF5NAQzB2u/fto4dOzLr08+oW7euoZSkprTaX0Qk+Lx6C+BKJxenpKQw/rnnVfw9oGF/EZFw8GIKoCdwmJMA5557Hnvvs4+hdKSmVPxFRMLDiymAfwLX2L24YaNGfPfdXBo2amQwJamOhv1FRMIl2VMAMeBUJwFuuOFGFf8k05O/iEj4JHsE4GDgY7sXt2zZkh/mLyA9Pd1gSrIrevIXEQmnZK8BOM3JxZdceqmKfxKp+IuIhFeyRwCWA63tXFivXj0WLFpMbq6RE4OlGhr2FxEJt2SOAHTAZvEHGH7qqSr+SaJNfkREwi+ZDcAhTi4eNmy4qTxkFzTsLyISDclsAPrbvbBVq1Yc2LevyVxkJ1T8RUSiI5mvAfaze+HQoScQj3t9cnG4ac5fRCRaklVV6wEd7V7cf8AAc5nIDjTnLyISPclqADrbvTAWi3GQhv9do2F/EZFoStYUgO0GYI899tDOfy7RsL+ISHT5fgSg5557msxDttKwv4hItPm+AejUqZPJPAQN+4uISPIagOZ2L+zUyXbvIDuh4i8iIpC8NQB17F7Yrl07g2lEm+b8RUSkUrJGAOravTC3Xj2TeUSW5vxFROSPktUA2B4BqFPH9qWylYb9RURke/5vAHJyTOYROSr+IiKyM8ncCtieWLJPLA4Pj+f8AYqBZaaDioiIc8kaAci3fWG+7UsjzeM5/0rZwETgMDeCi4iIfclqAPJsX5hn+9LI8njYf3vZwFuoCRAR8RX/NwBbtpjMI/RqM+w/athJbhf/StnABOCQZNxMRESq5/spgOXLl5vMI9R8MuxflRw0HSAi4hvJagB+tnvhwoULTOYRWj598t+eRgJERHwiWQ3AIrsXLl682GQeoeTzJ//taSRARMQHfN8AzJ0712QeoROQJ//taSRARMRjvm8Avp0zhy1aCLhTAXvy355GAkREPOT7BqCsrIzZs2eZzCUUfPaqn116RVBExCPJagDWAKvsXvzx9I8NphJ8Xg77x+NxGjRsaCwemg4QEfFEshoAANtV/M03XjeZR6B5Oewfj8e54rq/86/HnqV5i92MxUXTASIiSZfMBmC63QsXLFjAN19/bTKXQPJy2L+y+B8x+BiaNmvOuPsfM90EaDpARCSJAtEAALz00kum8ggkvxT/SmoCRESCLZlH7cWw1gI0tnNx8+YtmLdgARkZGWazCgAvT/WLx+NcOfYGDh901E5//+fVq7jq0vNY8/NqY/fE2jnyaOAjk0FFROR3KUm+X3dgbzsX5uXl0aZNW/bZZx/DKflbbef8v5vzjbF7//bkf+TRVX5Nnbq5HHzIYcye8ZHJcxvSgWHAbGCJqaAiIvK7ZI4AAAwCpti9uHPnznzz7XfE48mcufCO34b9q5KWlkqMMkYOO4GVZs9uKACOBd43GVRERJK7BgCsH+Rr7F68cOFC3ng9Gm8EeP2q35Vjb6hx8d9tt2a0btOG8S+/zm6tWhvLA70iKCLimmQ3AGXAK04CXHvN1RQUFBhKx5/88KpfVXP+f1RZ/FNSrJmkVm3a8MLrE2jVpo2xfNArgiIirkj2GgCAjcA5di/evHkz6elp9O8fzofC2i74Mz3nf+XYG3Y5519p++JfqW5uLkcMGsK0yZPYsnmzqdTSgJOBmcAyU0FFRKIs2WsAKn0O7G/34qysLL76Zg7t2rUzl5EP+Hm1/x9VVfz/aOXy5Zx+8lBWrVxhLEestwMGAZ+YDCoiEkVeraYb5+TiwsJCzjpzFGVlZaby8dzmgvAUf7CmA5777xum1wTkAK8BLU0GFRGJIi+mAADmASMA25vKr1q5krKyMg49LPhTwxvzC8krKq7267x61a9STYt/pdx69TjyqKOZNmUSmzdtcppqpTpAfazFgSIiYpNXUwAAFwIPOgkQj8d58623OOKIgYZSSq5EIsGGvEIKS0qr/dqgPPnvjAvTASVYG0rpnGgREZu8bACygIWAo71k69Wrx9R332PPPfc0k1WSlFckWJ9XQElp9dMYQS7+lVxoAo4CJpkKJiISNV7uqFMIXOM0yKZNmzj+2GNZtiw4i8OLS8tYszEvMsUfXFkTYHRxgYhI1Hi9pd7zwAynQX7+eTXHHn0UP5vdj964RAI25hfx6+Z8KhIV1X79xg3rQ1H8KxluAqpfMSkiIlXyugFIAJcC5U4DLVy4kEMPOYRFixY5z8oFxaVlrN20hfwaLPYDWLVyBcOPPyY0xb+SwSZgvol8RESiyusGAOBr4DETgZYuXcphAwbw1ZdfmghnRHlFgvVbCvh1cz6l5dU/9QPM/+EHhh13NIsXLTSWhx+KfyUDTcDPwBcGUxIRiRw/NAAA1wJGHt3Xrl3DoIFH8Nz48SbC2VaRqGBTQRG/bNxSo1X+lSa9NYFTTziGXwxOZ/ip+Fdy2AT8EwOjRiIiUeblWwDb2w9rh7d0UwFHnH469/3rfurUqWMqZLXKKirILywhv7iERCJR4+tKSkq4/aZ/8J8nHzeaTzwe58ox/+BwF97zN+GnVSsZcdLxNT5FMBaLvZ9IJI7EOldCRERs8ssIAMCXwBiTAZ9/7jkOOrAP06d/ZDLsDioSCQqKS1m3uYBfNmwhr6i4VsX/6y8/58QhA90p/mNv8G3xB2i5Wyuef/VNuvfoWe3XHnzIocz66ruViUQNVlCKiMgu+WkEAKx83gGGmA48bPhw/nn7HbRo0cJIvIpEBcUl5RSWlFJUWlargl9p3a+/Mu6WG3n15RdtXb8rfhz235WioiKeeepx/vPE4ztMf7Tv0JE/X3gxJw0/rTLHJzq2aHxeLBZTIyAiYpPfGgCARlinvnU1HbhO3bqcf/4FXHLpJTRt2qzG1yUqEpRWVFBWXkFJWRnFpWWU1XBB385s3LCe/zxpFbvNm41tkfuboBX/P0okEixaMJ+VK1YQj8dp36EjbXZ+6JOaABERB/zYAAC0w2oCXDn0JTMzk+EjzuCc886jU6fOxGIxYsSwnsETVFQkSCSsp/zSigoSFWaezlcsW8YzTz/Bi+OfobCgwEjM7QW5+NugJkBExCa/NgAAewEfAfVcvck++3LsCSdx9HFDadK0qfH469etY+KEN5jw+qt8/eUXxof6/yhixb+SmgARERv83AAADAAmAxlu3ygej9Olazd69z2IPgcdzF777EvTZs1rHWftmjV8N+drZs2cwaefzGTe/76nosL92hTR4l9JTYCISC35vQEAOA54BYOvB9ZUdk4O7Tt0pF37DtRv2JA6OXWom1uX1NQ0ysrL2LJpM/kF+WzasIElPy5m6ZIfyduS/APq0tLSufr6G+l/WPWnIoaw+FdSEyAiUgtBaADAeivgdZIwEhA0WVnZXH/zHex/wIHVfm2Ii38lNQEiIjUUlAYA1ATsoEHDhtw87n46delW7ddGoPhXUhMgIlIDQWoAwMPpAL9p1botN995Py1a7lbt10ao+FfavgmIAX2BQUBbrG2EFwKTAHOnLYmIBEjQGgCA44GXiXATcOjAwVx25ViysrOr/doIFv9KlU3AfsBDwP5VfN1U4CIMnUUhIhIUqV4nYMObwDAi2ARkZGZy0V+u5sijj6/R16enp9GyZdMoFn+AP11/4y2tgUOAzF183SDgU+AEYHoyEhMR8YMgjgBUitRIQPsOnRhzw220adehRl+fmZlBi+ZNiKf46biH5Pnh+7mccuwQioqKanpJPnA01t4TIiKhF+QGACKwMDAzM4uTTxvJqSPPJi2tZr1OdnYWzZo3Jh4L+rfXvjNOOYHZM2fU9rIC4FjgffMZiYj4SxgqRGibgN59+3Hx/11bqw2J6tWrS+NG9SHCxX/h/HkMObSf3cvVBIhIJARxDcD2JgHDCdF0QI899+ascy+i51771viaeDxO4yYNqFsnx8XMgmFW7Z/8/ygbmICmA0Qk5MLQAEAIFgbGYjF69+3HsNPPYo+ee9Xq2oyMdJo1b0xaali+nc78snp19V+0azlYx1KrCRCR0ApTxQhkE5CZmUW/Qw/n5FNH0a5Dx1pdG4/FqN8gl/oNcomFYjbHjPQMI99+NQEiEmphagAgIE1Aaloa+x9wIAOOOJIDDz6EzMysWsfIycmiUaOGpKVF8hW/XaptI7ULagJEJLTC+tjou1cEmzRtxp5778de++5P336HUjc311acjMwMGjWsR1bWrl5tj7YN69fTd5+elJaWmAqpVwRFJHTC2gCAh01Ao8ZNaLlba1q1acsePfem59770LxF9Vv27kpmZgYNGuSSnV370YIoumHsdTz79BMmQ6oJEJFQCXMDAC41AQOHHEPTZs3JzMwiKzuHtLQ06tWvT/MWu9Fyt9ZkZJp5Ok9JSaFOTjZ169UhIz3NSMyoyNuyhZOPHcKiBfNNhlUTICKhEfYGAFxoAtq068Ad9z1Kg4YNTYX8TTwlTk5OFnXrZJOZmUkswu/zO7VyxQpOP+l4Vq1cYTKsmgARCYWoVBfjmwW1adeeux98gtzcBiRI2I6TlppKRmY6WZkZZGZlkq4nfaN+WrWSEScdz8rly02G1WZBIhJ4UWkAwIUmoEPHToz/7+s0bNiY0tIySktLKa+ooKIiQUVFBRUVFSSAlHicWCxGLB4jNZ5CaloKaalppKWn6gk/CdQEiIjsKGrVx6Um4A2aNmtmKqS4QE2AiMi2otYAgJqAyFITICLyuyg2AKAmILLUBIiIWKLaAICagMhSEyAiEu0GANQERJaaABGJuqg3AKAmILLUBIhIlKkBsKgJiCg1ASISVWoAfqcmIKLUBIhIFKkB2JaagIhSEyAiUaMGYEdqAiJKTYCIRIkagJ1TExBRagJEJCrUAFRNTUBEqQkQkShQA7BragIiSk2AiISdGoDqqQmIKDUBIhJmagBqRk1ARKkJEJGwUgNQc8cDLwPppgJ26tKV8a+8TuMmTUyFFBesXL6c008eyqqVK0yGzQeOBj7aye/VA+Jb/7kM2GLyxiIioAagttQERJRLTUABsACr4NcHGuzia8uBzVjNwGrgV2AtsBz4EVi89X9/MpmgiISXGoDaUxMQUS41AaZtBL7Z+vka+AyY52lGIuJLagDsURMQUQFpAra3BpgBTAfeBb73Nh0R8QM1APapCYiob778gtNOPJ7S0hKvU7FrKfAO8DbWQsTA/ouIiH1qAJzR2wERsXnzJt6bMplJb09g+ocfUFZa6nVKpmwE3gJeASZhLToUkQhQA+CcRgJCqqKigpnTP+L5Z/7Nh++9G+Qn/ppaCTwFPL71n0UkxNQAmKEmIEQ2bdrIqy++wPPP/JulS370Oh0vlGFNDzwETPM4FxFxiRoAc9QEBNzqn1bx2IMP8MoL4ykqKvI6Hb/4Grgd+C/Wq4giEhJqAMxSExBAK5Yt45EH7uO1l1+KwjC/XT8CtwD/QY2ASCioATBPTUBArPnlF+654zZee+Ulysu09q2G5gF/BV4FEh7nIiIOqAFwh5oAHysqKuKpRx/mkQfuoyA/3+t0gupz4DJglteJiIg9agDcoybAh9564zXG3XITP63SIncDEsAzwLXAzx7nIiK1pAbAXWoCfGLVyhX89Zormf6BDuBzwWbgOuBhNC0gEhhqANynzYI8lEgkeOm5Z7ntxr+Tn5fndTphNxM4B5jvdSIiUj01AMmhkQAPrFy+nP+7+Hy++uJzr1OplfoNfj8UsLSkhPxgrVMowJoSeACNBoj4mhqA5FETkEST3prAmKsuZ8vmzV6n8ptmzZrTvXt3unbtSpu2bWjVqjWtWrWiUePGNGhQn/r1G5CWlrbTa0tLS9mwYT1r1/7KunW/smrlKpYuXcKSJUtYtGgR//v+ezZt2pTkf6NdehsYjXVksYj4kBqA5FIT4LKioiJu/ttYXhz/jKd5NGzUiD69+9DrgF70OuAA9t1nXxo0bOja/RKJBEuXLmXON9/w2WefMXPmDL768kvKvH298SdgJNaBQyLiM2oAkk9NgEtWLFvG+aNHMv+HH5J+75SUFPoceCCDBg3i8MOPYJ999yUejyc9jz/Kz89n5swZTHznHSZNnMjy5cu9SKMcuAa4y4ubi0jV1AB4Q02AYZ/N+oSL/nw2G9avT9o94/E4AwYcygknnshxxx9H06b+XpT57bff8vJLL/HySy+yYsWKZN/+eeDPWGsERMQH1AB4R02AIS899yz/GHNt0rbxbdeuHaPOPJMzRo6idevWSbmnSYlEghkff8yTTz7BG6+/TnFxcbJu/RVwDLA6WTcUkaqpAfCWmgAHEokEt97wN55+7JGk3O/QQw/jwosv5qijjvJ8eN+UX9eu5d//fpoHH3iQn39OSl1eChwFJH+eRkS2oQbAe2oCbCgvL+e6K/7Cay+/6Op94vE4Q084gWuvG0PPnj1dvZeXiouLeW78eO65+y4WLVrk9u3WY/29n+H2jUSkamoA/EFNQC2UlJRw+YXnMWXi267dIxaLccKJJzL2+r/SvXt31+7jN2VlZYx/9lluufkmVq50dbvkAmAoMM3Nm4hI1dQA+IeagBooLCjggtFnMmP6h67do3efPtxxxzgO6N3btXv4XVFREY88/BC33Xorm93bS6EIOAmY6NYNRKRqagD8RU3ALhQXF/PnkSP4ZMZ0V+I3bdqMO8aNY9jw4cRi+k8D4OefVzN2zBheeP55EglXNvYrAU4BJrgRXESqpp9y/nMU8Bo6O2AbZaWlXPins3l/2hTjsWOxGKeNGMG4cXfSsFEj4/HD4JOZMzn/vHNZuHChG+FLsJrfyW4EF5GdC8dS5nCZCAzH+qFoxI+LFzFq+En8ujaYu7KWl5fzf5dc4Erxb926NRMnT+bJp55W8d+FvgcdxKxPP+Oiiy52Y3QkHXgF6GM6sIhUTSMA/qXpgK3GXHk5Lz8/3njc00aM4J5776NevXrGY4fZtGlT+dPoc1iz5hfTodcD/YHvTQcWkR1pBMC/3gSGYXAkYNGC+ZxxygmBGgl47KH7jRf/rKwsHnv8CZ56+t8q/jYMHDiIz7/8gsMPP8J06IZYhwg1NR1YRHaU4nUCskvzsXZPOxlINRFw/bp1vD9tCkcefSw5deqYCOmaD96dxtgrLze6+Kx169a8OeEtBg8ZYixmFOXk1OG0ESOAGDM+/thk6PrAocBzQKnJwCKyLTUA/rcQ+A44EUPfrw0b1vPRB+8x+Ohjyc7JMRHSuO+/+5ZzRp5GSYm57X379e/PlKnT6NCxo7GYURaLxeh/yCF06dKVKVMmU1pqrF63BDoCr5oKKCI70hqA4IjMmoAN69dz3KDDWP3TKmMxTz/jDB56+BHS04398ckffDp7NieddCLrfv3VZNjLgXtNBhSR32kNQHBEYk1AIpHgqssuMlr8r77mWh5/4kkVfxf17tOHDz78iPbt25sMewdwkMmAIvI7NQDBEvom4NEH/8WH771rLN5NN9/MDTfeqI19kqBz586898GHdO3a1VTINKxRLy0KFHGBfioGUyinA7747FNOP3ko5WVljmPFYjHuvPtuLrzwIgOZSW2sWfMLRw0ezPffG3ub7y3gOFPBRMSiBiC4QtUE5OflcfTh/Vm5YoWReLffcQeXXvYXI7Gk9n5du5aBRxzOvHnzTIU8D3jMVDAR0RRAkIVqOuCOW240Vvz/ccMNKv4ea9ykCW9PnETbtm1Nhbwb6GwqmIhoBCAMAj8SMHvmDEYOO9HI+/4XXngRd91zj4GsxIRFixZx2IABrF27xkS4j4FDAFdOJRKJGjUA4RDYA4QKCws5+vD+LF+61HGsIUOO4pVXXyUlRdtb+MmXX3zBoIFHUFBQYCLcucDjJgKJRJ2mAMIhsAcIPXD3nUaK/9777MOzzz2n4u9D++2/Pw89/IipNzFuB5qbCCQSdfppGR7zMbxj4Pp16/jw/Xdd2zFw2dIlXHnphZSXlzuK06hxYyZPmUoTn21oJL/r0aMHBQWFzJr1idNQWUALrBEvEXFAIwDh8iZwAlBsKuCiBfMZceJxrPnF+Mlv3PL36x1v9RuPx3nq6adp06aNoazELTfedJOpA4RGAAebCCQSZWoAwicQ0wHTP3if96dNdRxnzNixDBp0pIGMxG0pKSk8+fRTNGvmeAQ/BoxDa5hEHNF/QOHl27cDKioqOOaIASyY94OjOL379OHd994nNdXIQYmSJJMnT+LEoUNNvPUxAnjBQEoikaQRgPDy7T4Bk96e4Lj4161bl6ee/reKfwANHjyEP597rolQN2LomGyRKFIDEG6+awLKy8v5113jHOdxw0030aFDB8dxxBu33vZPEwcHdQJGGkhHJJLUAISfrxYGvv3m6yxeuMDR/XsdcADnnnueoxjirZycHO67/34Tof6GwWkukSjRa4DRsBDDrwhu2LCejz54r1avCCYSCS674Fw2rF9n+75paWm8MeEtmrm8QZG4r2PHjixatJDv5851EqY+8CPwjZmsRKJDIwDR4fl0wPQP3nf89H/eeefTvXt3RzHEP26/4w7q1q3rNMwVaEGzSK2pAYgWT6cDnn78UUf3qt+gAdeNGeMohvhLs2bNufKqq5yG6QEMMpCOSKSoAYgeT/YJWLxoITOnf+joPtf/9a80bNTIUQzxn0suvczERk7/ZyIXkShRAxBNSZ8OeOapJxy9992qVSv+9Kc/275e/CsrK4ux1//VaZiBQFcD6YhEhhqA6EradEBxcTFvvfaqo9hXX3MtGRnGDjsUnzn9jDPo3LmzkxAxYLShdEQiQQ1AtCVlOuD9qVPYvHmT7Zi77bYbZ551loHsxK9SUlK4+pprnYY5E0gzkI5IJKgBENenA17/70uO4l140UWkp+tV77AbfuqptGrVykmIZsAxhtIRCT01AAIuTgfM++F/TP/wA9txsrOzOftsjexGQVpaGhdedJHTMCNM5CISBXp3Vv7I+AFCWVlZFBYW2r7+vPPP5977/mUqHfG5jRs30qlDe/Lz8+2GKACaArYDiESFRgDkj4yPBDgp/oCe/iOmfv36nDxsmJMQ2WgaQKRG1ADI9owvDLRrn333Za+99/Y6DUmys0c7bvpONpGHSNjpKE3ZmcqFgUanA2rrzDPP8urWSbN+3To+/vhjZsyYwbwffmDhwgVs2ryZTRs3EovFyK1Xj0YNG9KlS1d2796dg/sdzMEH9zOxfa5v9T6gN1277c58+0dGD8J6G6DUXFYi4aM1ALIrxtcE1FRKSgpLli2jSZOmyb6160pKSnj9tdd4bvx43n//PcrLy2t1fXp6OoOHDGHkqDM56qijiMfDN5B30y23cOuNNzgJMQD4yEw2IuGkBkCq40kTcMghA5g8dWoyb+m60tJSHn/8Me656y5WrlxpJGbXrl25+pprOW3ECGKx8Pzn/O338+i9755OQvwTuM5QOiKhFL5HBzHN+D4BNTH0xBOSeTvXfTx9Or177c8Vl19urPgDzJ8/n3NGn82hAw7h22+/NRbXax06tqfnXo7WfxxpKheRsFIDIDWR9CZg8OAhybqVq8rKyvjH3//O4CMH8cMPtue0q/Xp7Nn0P/ggHnroQdfukUypKXEGDj7KSYi9gHqG0hEJJTUAUlNJawI6d+5Mu3bt3L6N6/Ly8jhx6FBu/+dtVFRUuH6/4uJirrj8cv50zmhKS4O9/i01nkK/AYc6CREH+hhKRySU1ABIbSSlCRg4MPhHu2/cuJEhg49k2rTkr2N4bvx4hp18MsXFxrZzSLqUeIw9eu7p9PjnvqbyEQkjNQBSW643AQf36+dW6KQoLCzk5JNO5IvPP/csh8mTJ3H2WWcmZeTBDbFYjNTUFA7qd4iTMGoARHZBDYDY4WoT0LtPsEduzz/vXGbOmOF1Grz+2mv87a9/9ToN2+KxGPv1OsBJCO0iJbILagDELleagNatW9OyZUuTIZPqiccf5+WXnJ1+aNLdd93J5MmTvE7Dllgsxr7OGoDGQAtD6YiEjhoAccJ4E7DvfvuZCpV0K1eu5NprrvY6jW0kEgkuPP98Nm/e7HUqtRaPxei6e3eyc3KchOlpKh+RsFEDIE4ZbQJ69Ajuz+urrrzCySl2rlm9ejW33Hyz12nUWowYKSkpdO3W3UmYHqbyEQkbNQBigrFTBHv0CObP62/nzOHNN97wOo0qPfrIw/z0009ep1ErsVgCgC7dujkJ08lIMiIhpAZATDFyimBXZz/sPXP77f8kkUh4nUaViouLue/ee71Oo5asrY27dNvdSZD2RlIRCSE1AGLSm8AouxfHYjHatm1rMJ3kWLt2DW9NmOB1GtUaP/5ZSko8P+W55rYebdCxk6OH+HYGMhEJJTUAYtp3di9s3LgJ2dnZJnNJipdeesnIznsdO3XmbzffxrQZs/l+yUq+W7ycd96bzlVj/0rzFs7fjFi/bh1TJk92HCfZdmvdxsnlbdGhZyI7pQZATGts98LWbVqbzCNppkxyVlTj8ThXXDuWie9PZ9ToP9G+Q0cyMjLIysqi6+67c95Fl/LuzE8ZNfpPjnOdNGmi4xjJ1nK3Vk6OPM5CZwKI7JQaADGtid0LmzZpajKPpCgpKeGTT2Y6inHLnfdwwaV/ISU1tcqvyczM5G8338alV1wWsbXtAAAUY0lEQVTl6F4ffvCBo+u9kJGRQaPGtvtKcNCUioSZGgAxzfYP24aNGprMIynmzZtHQUGB7etPHn4ap5w6osZff8n/XUXfg/vbvt+SJUvYuGGD7eu90qChozMBHF0sElZqAMS0XLsXNmwQvAZg4YIFtq9NSU3l8muuq9U1sViMK8dcb/ueAAsc5OyV+g0aOLlcDYDITqgBENPS7V5Yp25dk3kkxYoVy21fe0CfA2nWvPY71e659z60bWf/7bYVK1bYvtYrDZw1h7abUpEwUwMgptluANLT00zmkRRbtuTZvrbnnvbPqum5l/1rg7gtcJazt0Ns/50UCTM1AGJaht0L09OD93O6sLDQ9rW59e0vTq/f0P4TcUGh/TULXsnIsP3XChz8nRQJMzUAYprtx/i0tOCNAGRlZdm+1slivA3r1tm+NjsreHstpKerARAxTQ2AiAO5ufbXLXz7zdf2r51j/9rc3OBNiaemVf2KZA0Er7MUSQI1ACIOtHawS92Xn33KT6tW1vq6r7/8nBXLltm+b5s2jnbW80Qs5mgzP+0EKLITagBEHOjcpYvta8vLy7nrn7fW6pqKigruuOUm2/cEZzmLSHioARBxoFu3btSpU8f29W+++grP/efpGn/9XbfdwuezZ9m+X8eOHalfv77t60UkPNQAiDiQlpZG374HOYrxjzHXcPftt1JaWvVJfQX5+Yy58nIeffBfju414NBDHV0vIuGhBkDEocFHDXF0fSKR4KH77mFQ/748/tADzP/hB/K2bGHjxg3M/XYO/7prHIf17cXLz493nOuQo452HENEwsHR0loRgeHDhnPt1VdTUlL1E3xNrFi2jNtvvoHbb77BUGbbatykCYMGDXIltogEj0YARBxq2KgRxw8d6nUa1Ro5clQg91oQEXeoARAx4Nrrxjg5s951mZmZXHrZpV6nISI+4t+fWCIB0r17d04+5RSv06jSRRdfQnMbBw+JSHipARAx5I5x46hXz/7+/m5p1aoV115Xu2OHRST81ACIGNKsWXPG3XmX12lsIx6P8+jjjzvaq0BEwkkNgIhBI0eNYuSoUV6n8ZtrrxvDYYcd7nUaIuJDagBEDHvgwYc44oiBXqfBsOHDGXv99V6nISI+pQZAxLD09HSee+EFDuzb17Mcjj32WB5/4klfv5kgIt7STwcRF+Tm5vL2OxM5+ujk77w3+pxzeOGll0lPT0/6vUUkONQAiLgkOzubV159jXF33ZWUDXgyMzMZd9ddPPjQw6SkpLh+PxEJNjUAIi6KxWJcfPElvPve++y5116u3eeQQwYw69PPuPjiS1y7h4iEixoAkSQ4oHdvPpk1m4cefoQOHToYi9uzZ0+ef+FFJk2ZQrdu3YzFFZHwUwMgkiQpKSmcPXo0c76by4svvcwxxxxja54+Ozub4aeeyoS33+bTz7/ghBNPJBaLuZCxiISZTgMUSbLU1FSOHzqU44cOJS8vjxkzPmbmjJnMn/cDCxcuZN269eTlbSEej1OnTl2aNGlMp86d6d59D/r170efPgeSmZnp9b+GiAScGgARD9WpU4fBg4cwePAQr1MRkYjRFICIiEgEqQEQERGJIDUAIiIiEaQGQEREJILUAIiIiESQGgAR8SXtbCDiLjUAIiIiEaQGQET8SbsbirhKDYCI+FI84XUGIuGmBkBE/EkjACKuUgMgIr6kA45E3KUGQER8Ka76L+IqNQBimu2/U3rik2384e9DSkqKk0hpjnMRCSE1AGJajt0LMzJ0xK38LuUPDUBGRoaTULb/ToqEmRoAMa2O3QuzsrJM5iEBF4//sQFw1Bza/jspEmZqAMS0unYvVAMgf5QS//3Hk8MRADUAIjuhBkBMs/3DNiNTUwDyuz+OAGQ6aw5tN6UiYaYGQEyz/cM2N1c/p+V38ViM+NZ1AI0aN3YSqpGRhERCRg2AmNbW7oUtWrQ0mYeEQGqqtfq/abNmTsJ0NpKMSMioARCTGgC2H9VatGhhMBUJg/St6wCaNmvuJEwbQPNLIttRAyAmdbF7YZ06dahbV1MAsq3KEYBmzZoTj9v+cRUHOprKSSQs1ACISbaHWlu21PC/7Ch9awOQmpZG4yZNnYSy3ZyKhJUaADHJ9g/ZTp00TSs7Sk2J/7ZDZOcuXZ2E2sNIQiIhogZATOpl98I9evQwmYeERCwWIyM1FYAu3bo5CdXfSEIiIaIGQExJBQ6ye3H37t0NpiJhkpFuNQCduzpqAA4C0k3kIxIWagDElP1xsAeAGgCpSnZGKjGgi7MGIBvr76iIbKUGQEwZYPfCjIwMujob3pUQi8fiZKSlsnuPnk63BD7EVE4iYaAGQEwZYPfC/fbf3+kPdgm57MwMMjIy2HOffZ2EGWQqH5EwUAMgJjTAQQPQr5/WZ8muZaWnkhqP06t3Hydh+gOtDKUkEnhqAMSEkwHbj/AHHWx77aBESJ2sDHr1PtBJiDhwqqF0RAJPDYCYcLrdC1NTU+nt7KlOIiI7M53eBx7odLroDFP5iASdGgBxqjXQz+7FBx/cj9zcXIPpSFjFgBZNGnJQ/wFOwuwFaNMJEdQAiHOn4+Dv0bHHH2cwFQm7zLQ0jjrmGKdhzjWRi0jQxbxOQAItDViEddparcViMRYsWkyrVlqXJTW39tdfad+2DeVlZXZDFADtgLXGkhIJII0AiBNnYrP4A+y7334q/lJrTRo3pm9fRwtHs4FLDaUjElhqAMSuFOBqJwGGDRtmKBWJmjPPPNNpiItwsHOlSBhoCkDsGg68aPfi9PR0Fv+4hMZNmhhMSaKioKCADu3bsWnjRidhrgHuMJORSPBoBEDsSAX+6iTAMcceq+IvtmVnZ3PqqY5f6R8DNDOQjkggqQEQOy7G4fnqZ48ebSgViaqzz3b8d6gecLuBVEQCSVMAUlvNgfmA7Zf3O3bsyJxv5xKP79h/JmIJKhIOsgMSTgMAFQlnMRIkcBiCRMJMDEfX4/z7QcKK40RFIsHOQpwy9Fg+mfGxk9AJ4GDgEydBRIIo1esEJHDG4aD4A4w+/yJ+3pRnKB2JsnMvusRpAxADHgB6AeVGkhIJCE0BSG0cgoNtfwGaNmvOCacMN5SORN3BhxxKjz33chpmH6wFgSKRogZAaqoh8AwOp43OOe8C0tPTzWQkApx/8WUmwtwA6FQqiRStAZCaiAFvAI727W3YqBEfzv6S7JwcM1mJABUVFZx41CDmfjvHaajlWKMB651nJeJ/GgGQmvgLDos/wGVXXqPiL8bF43HG/P1GE6HaYGCUSyQoUrxOQHyvF/A8Dv+udOzUmdvuunenK/9FnNqtdWv+N3cuPy5e5DRUF6AEcLSyUCQI1OnKrrQHZgItnAZ67D/jOWzgkc4zEmNKSko8WY9RVlpKfkG+oxiFBQWUlpRu82tLflzMOWec6vjVR6xXA88BnnYaSMTP1ABIVZoCM4DOTgPl1KnDGWeOpri4iKKiolpfX15WRl6+vdcGt2zabKsg5BfkU1ZaWv0XbqekpITCwoJaX1dRXkHeli21vg5gy5bNVFRU2Lo2PT2dNu3ac8SRQzjrT+e6tjvj57Nn8eL4Z5g1cwZr1/xioki7rQwYCrzjdSIiblEDIDtTB/jg/9u78xiryjOO498ZYO7cueMM4jDDLDA7zIzbIIuxLe6ABUmrsW3ahhptampDWrE0ptWobW2aihvaJl2iTRpTDWXfWhYH1FiBDgMuIIuA4gIF6oIwwzDM3P5xJDFEB+45z7nvXX6f5PzBH+e5Dze59/nN+557DjDWdSOSPAWxGL/+3UN87cabzGp2dXVx96yZLFk436xmEnUC1wDrXTciEgZdAyCni+Bd8T/BdSOSXD09PaxasZyyYeUWv62np+cEt3znW7StXmXQnRODgBuB1cABx72ImNMVWfJZEWA+MMl1I+LOfb+4i107tgeuM2f2g2x8Oe3vsDsELwC0um5ExJoCgJxyavhPdd2IuHWyp4c5Dwd7Su7hQ4f461/+aNSRc+fhhYDgyyIiKUQBQEDDX06zdvUqOo/5v1J/zcp/0t3dbdiRcyV4IeBC142IWFEAkDxgLhr+8hnd3d3s2rnD9/lbX3vVsJuUMRR4DoUAyRB6GmB201/+8oV2vXeUIfX5vs7df9jfTxrTwFBgDXA1sNVxLyKBKABkLw1/6VfnoCr2fhT1dW5uQZlxNymlFG8l4Gpgm+NeRHzTFkB20rK/9CsSjVFZf77v82tbMv4WEmV498rw/yaJOKYAkH0iwAIMHu4jmWvMlTcwKM/f8j9A64Rp5BecY9hRSirFuzBwlOtGRPzQjYCyi5b95Ywi0Ri3P/AMsaJzfdfIi0SJx+O80b7WsLOUdA7ezYKWAf9z3ItIQrQCkD00/OWMcnMHcOs9TzK0si5wranfu4vWCdMMukp5FXjbAYGfmyGSTFoByA4a/nJGxSXl/Og3zzL6cpuhnZOTw7hrbqLr2BHeeqM9HR4AFMSplYAlwAeOexE5K3oYUObT8JfPlReJEisaQnlNE60TrmfCtFuJRGOhvNZ7e7bx4tKneKO9jY8O7aev92SgegPzIuTlFwTu68gH/6W7K9ijiU/zLnAlsNuyqEgYFAAyWyjD/4qv/4ChlbUJnxc7x9+eciQaY8DAxJ9bP2DgIPILCn29ZkHhYMhJ/OMRyY8ycFAk4fNyBwwkP+bvormCWDE5udrN8+OdXa8ye8ZEjn5sun3/Dl4I2GNZVMSaAkDmygP+gfHV/jfcdj/Tbr3HsqSIUwoBkq30Z0Nm0vAXOUvDGy9i1hOrKCw+z7Qs3oWBwa+mFAmJVgAyj4a/iA/7dr7C7BkTOXbE9Bq+fXgrAXsti4pY0ApAZtHwF/FpxMiL+dnvVxErGmJaFlgHJH7RjEjIFAAyh4a/SEAjRrYy64mVYYSAtUCNZVGRoLQFkBk0/EUMvb1jMw/NmMSxTz40LYu3HfCWZVERv7QCkP40/EWMVY8azR2PLiMaKzIti/fsgErLoiJ+KQCkNw1/kZDUX3Apdz62wjoENOBtBygEiHPaAkhfGv4iSfDmay/zyE+mcLzzE8uyu/C2A963LCqSCK0ApCcNf5EkabjwMu6cs8L68caNeCsBFZZFRRKhAJB+NPxFkqzhwsuY+dhy6xAwEmgDyi2LipwtBYD0ouEv4kjjRV9i5qPLiET9PV/iC4zCWwlQCJCk0zUA6UPDXyQF7HrlJR65YyrdXUcty24HrgIOWBYV6Y9WANKDhr9Iimi8+MthrAQ04a0EDLMsKtIfBYDUp+EvkmJGtn6FmY8sJRKNWZZtAlYCJZZFRb7IANcNSL80/EVS1Hnl1dS2jGNT23x6e09alS0DrgPmAZ1WRUU+jwJA6tLwF0lxpZV11LaMo71tPn22IWAy3ue/y6qoyOkUAFKThr9ImiitqqfOPgQMAybhrQQoBEgoFABSj4a/SJopraqntnmsQoCkFQWA1KLhL5KmSqvqqWkew6a2BdYhYCLaDpAQKACkDg1/kTRXVtVATdMl3kpAX69V2XK8lQCFADGlAJAaNPxFMkTZ8AZqmseEEQJOrQQctyoq2U0BwD0Nf5EMUza8geqmS2hvW2AdAq5FIUCMKAC4peEvkqHKhjdSUddCx7pFxPv6rMpWAJfjfW90WxWV7KQA4I6Gv0iGq6hpprLufOsQMBy4Au/744RVUck+CgBuaPiLZImKmmYqa1vYtG4h8bhCgKQOBYDk0/AXyTIVtc1U1Dazad0i6xBwajtAIUASpgCQXBr+IlmqoraF8pomOp43DQEjgAkoBIgPCgDJo+EvkuUq61oorxlFx/OLrUOAVgIkYTmuG8gSoQz/626+98TkW+7tzYGoZV0RCVNOV8eaZ3Of/u3NEcM7BgK8CEwBjloWlcylABC+UIb/VdPv54pv6y9/kXT1+gtzWfDgdMv7BAC8gBcCjlkWlcykLYBwafiLyOcqrT6f4tJqdqxfCsStylYD4/AeIGS6vCCZRwEgPBr+ItKvYXUXM7h0BDs2LMMwBNQD41EIkDNQAAiHhr+InJVh9a0Ulw5np30I0EqA9EsBwJ6Gv4gkpLy+leKhVezcsByFAEkWBQBbGv4i4kt5/WiKSirZudE0BDQAY4H5KATIaRQA7Gj4i0gg5Q2jKSqpYOfGFYQQAuYBpj85kPSmnwHaiOAl7KmuG+lPfqyYIeX1NI6fyvjrbyc2uDSU1zn49lbal/+JPVue4+OD++g50RXK64hIQpYA30A3C5JPKQAElxbD/3R50UKm/HAOrRNvNqvZ13uS1U/9nA2LH7f+bbOI2FgEfBPocd2IuKctgGBygbkYL/snQ+/JE2xfv4T8wsFUNV0auF48HmfBg9PpWPkk8bjZ0qWI2GoCGoEFrhsR9xQAgvkp8GPXTQSxZ/MaGsZcR1FJZaA6G5f+gX/Pf9ioKxEJ0QXAQeA/rhsRt3JdN5DGCoG7XTcRVF9fL8/9LdhFhj3dnTz/9weMOhKRJLgPyHfdhLilAODfVGCw6yYs7N2ylqMfHvB9/u6O1XQeOWzYkYiErBS41nUT4pYCgH9jXTdgJR7vY//uLb7P3//mZsNuRCRJxrluQNwa6LqBNHau6wYs7dv20rLGsZO3+jn33R0bJgGjjVsSkXBl1HeYSDLNxrtTR6YcXw3wXvwqBfrXoUNHYscvkaymLQD/MukK2j6gI8D57VaNiEjS6HOb5XQjIP8KgX1kxjLaamBSgPOjeO9FiU07IhKyg0A1cNx1I+KO7gPg3wm8u2lNdt1IQCeB7wLvB6zRBUwx6UhEwjYLWO+6CZF0lot3G2DXe3lBDqsbGeUAz6TA/0eHDh39H0+j1V9BKwBBxYGFQBEwnvT6UB0BbgP+bFhzEVAAXIquLxFJNb3AQ3ihv89xL5ICFACC6wP+BSz+9N9FQIzU/InlR8DreEN/OvCycf043vUE8/Del2K8QDDI+HVE5OwcB94EngW+j7dKp+EvAPwftP1dfo45bMQAAAAASUVORK5CYII=;" parent="EAdZtr5CvZvqk6wnGcya-2" vertex="1">
          <mxGeometry x="11.127775755369493" y="55.638567803777846" width="130.5837186354666" height="130.5837186354666" as="geometry" />
        </mxCell>
        <mxCell id="G4rwLLoVx2K-rOXY0CrV-147" value="&lt;div style=&quot;text-align: center;&quot;&gt;&lt;b style=&quot;background-color: initial;&quot;&gt;&lt;font style=&quot;font-size: 20px;&quot;&gt;Robot Arm&lt;/font&gt;&lt;/b&gt;&lt;/div&gt;" style="text;html=1;align=left;verticalAlign=middle;resizable=0;points=[];autosize=1;strokeColor=none;fillColor=none;fontSize=12;" parent="EAdZtr5CvZvqk6wnGcya-2" vertex="1">
          <mxGeometry x="22.8389151801966" y="15.63771356075557" width="130" height="40" as="geometry" />
        </mxCell>
        <mxCell id="EAdZtr5CvZvqk6wnGcya-3" value="" style="group" vertex="1" connectable="0" parent="1">
          <mxGeometry x="511" y="457.9973669077676" width="250.76999999999998" height="162" as="geometry" />
        </mxCell>
        <mxCell id="G4rwLLoVx2K-rOXY0CrV-168" value="" style="group;strokeWidth=5;strokeColor=#94c1ff;container=0;" parent="EAdZtr5CvZvqk6wnGcya-3" vertex="1" connectable="0">
          <mxGeometry x="3.26" width="247.51" height="160" as="geometry" />
        </mxCell>
        <mxCell id="G4rwLLoVx2K-rOXY0CrV-145" value="&lt;font style=&quot;border-color: var(--border-color); font-size: 20px;&quot;&gt;&lt;font style=&quot;border-color: var(--border-color); font-size: 20px;&quot;&gt;Non-Solvent-Induced&lt;br style=&quot;border-color: var(--border-color);&quot;&gt;Phase Separation (NIPS)&lt;/font&gt;&lt;font style=&quot;border-color: var(--border-color); font-size: 15px;&quot;&gt;&amp;nbsp;&lt;/font&gt;&lt;/font&gt;" style="text;html=1;align=center;verticalAlign=middle;resizable=0;points=[];autosize=1;strokeColor=none;fillColor=none;fontSize=12;fontStyle=1;container=0;spacing=0;" parent="EAdZtr5CvZvqk6wnGcya-3" vertex="1">
          <mxGeometry y="2" width="250" height="60" as="geometry" />
        </mxCell>
        <mxCell id="068pTRy_MaGUJHBF9QUh-9" value="" style="rounded=0;whiteSpace=wrap;html=1;strokeColor=none;strokeWidth=5;fontSize=12;fillColor=#dae8fc;container=0;" parent="EAdZtr5CvZvqk6wnGcya-3" vertex="1">
          <mxGeometry x="48.45999999999992" y="110.00263309223237" width="157.09" height="38.01" as="geometry" />
        </mxCell>
        <mxCell id="068pTRy_MaGUJHBF9QUh-10" value="" style="shape=image;html=1;verticalAlign=top;verticalLabelPosition=bottom;labelBackgroundColor=#ffffff;imageAspect=0;aspect=fixed;image=https://cdn3.iconfinder.com/data/icons/weather-free-2/32/Weather_Free_Outline_freezing-termometer-weather-cold-temperature-128.png;strokeColor=#94c1ff;strokeWidth=5;fontSize=12;fillColor=#B3B0B0;gradientColor=none;container=0;" parent="EAdZtr5CvZvqk6wnGcya-3" vertex="1">
          <mxGeometry x="87.24155555555535" y="62.00263309223237" width="62.57534779939197" height="62.57534779939197" as="geometry" />
        </mxCell>
        <mxCell id="068pTRy_MaGUJHBF9QUh-11" value="" style="rounded=0;whiteSpace=wrap;html=1;strokeWidth=3;fontSize=12;fillColor=#808080;gradientColor=none;strokeColor=none;container=0;" parent="EAdZtr5CvZvqk6wnGcya-3" vertex="1">
          <mxGeometry x="65.91444444444426" y="135.58275377471261" width="122.18111111111108" height="12.429879317519763" as="geometry" />
        </mxCell>
        <mxCell id="068pTRy_MaGUJHBF9QUh-12" value="" style="rounded=0;whiteSpace=wrap;html=1;strokeWidth=3;fontSize=12;fillColor=#FFD966;strokeColor=none;container=0;" parent="EAdZtr5CvZvqk6wnGcya-3" vertex="1">
          <mxGeometry x="84.24161111111084" y="130.25566263863288" width="85.52677777777775" height="5.3270911360799" as="geometry" />
        </mxCell>
        <mxCell id="068pTRy_MaGUJHBF9QUh-14" value="" style="endArrow=none;html=1;rounded=0;fontSize=12;" parent="EAdZtr5CvZvqk6wnGcya-3" edge="1">
          <mxGeometry width="50" height="50" relative="1" as="geometry">
            <mxPoint x="205.54999999999973" y="148.01263309223236" as="sourcePoint" />
            <mxPoint x="48.45999999999992" y="148.01263309223236" as="targetPoint" />
          </mxGeometry>
        </mxCell>
        <mxCell id="068pTRy_MaGUJHBF9QUh-15" value="" style="endArrow=none;html=1;rounded=0;fontSize=12;" parent="EAdZtr5CvZvqk6wnGcya-3" edge="1">
          <mxGeometry width="50" height="50" relative="1" as="geometry">
            <mxPoint x="49" y="148.00263309223237" as="sourcePoint" />
            <mxPoint x="48.97723337037024" y="90.00366513551171" as="targetPoint" />
          </mxGeometry>
        </mxCell>
        <mxCell id="068pTRy_MaGUJHBF9QUh-30" value="" style="endArrow=none;html=1;rounded=0;fontSize=12;" parent="EAdZtr5CvZvqk6wnGcya-3" edge="1">
          <mxGeometry width="50" height="50" relative="1" as="geometry">
            <mxPoint x="205.01999999999998" y="148.00263309223237" as="sourcePoint" />
            <mxPoint x="204.99723337037028" y="90.00366513551171" as="targetPoint" />
          </mxGeometry>
        </mxCell>
        <mxCell id="G4rwLLoVx2K-rOXY0CrV-184" value="&lt;span&gt;Cleaning and Data Post-Processing&lt;/span&gt;" style="text;html=1;align=center;verticalAlign=middle;resizable=0;points=[];autosize=1;strokeColor=none;fillColor=none;fontSize=18;fontStyle=0;container=0;" parent="1" vertex="1">
          <mxGeometry x="456" y="220" width="310" height="40" as="geometry" />
        </mxCell>
        <mxCell id="EAdZtr5CvZvqk6wnGcya-6" value="&lt;span&gt;Tranfer to NIPS Bath&lt;/span&gt;" style="text;html=1;align=center;verticalAlign=middle;resizable=0;points=[];autosize=1;strokeColor=none;fillColor=none;fontSize=18;fontStyle=0;container=0;" vertex="1" parent="1">
          <mxGeometry x="351" y="650" width="190" height="40" as="geometry" />
        </mxCell>
        <mxCell id="EAdZtr5CvZvqk6wnGcya-7" value="&lt;span&gt;Tranfer to Compression Tester&lt;/span&gt;" style="text;html=1;align=center;verticalAlign=middle;resizable=0;points=[];autosize=1;strokeColor=none;fillColor=none;fontSize=18;fontStyle=0;container=0;" vertex="1" parent="1">
          <mxGeometry x="651" y="650" width="270" height="40" as="geometry" />
        </mxCell>
      </root>
    </mxGraphModel>
  </diagram>
</mxfile>
